<svg width="19" height="19" viewBox="0 0 19 19" fill="none" xmlns="http://www.w3.org/2000/svg">
<path d="M8.04109 15.98C9.82701 15.9803 11.5616 15.3861 12.9685 14.292L17.393 18.692L18.8149 17.278L14.3904 12.878C15.5009 11.45 16.0924 9.69006 16.0686 7.88498C16.0447 6.07989 15.4069 4.33604 14.2589 2.93754C13.111 1.53905 11.5207 0.56835 9.74709 0.183593C7.97347 -0.201163 6.1211 0.0227051 4.49179 0.818723C2.86247 1.61474 1.55224 2.93599 0.774582 4.5672C-0.00307984 6.19841 -0.20234 8.04343 0.209266 9.80166C0.620872 11.5599 1.61908 13.1277 3.04126 14.2496C4.46344 15.3715 6.22576 15.9815 8.04109 15.98ZM8.04109 1.98001C9.23441 1.98001 10.4009 2.3319 11.3931 2.99119C12.3853 3.65048 13.1587 4.58755 13.6153 5.68391C14.072 6.78026 14.1915 7.98666 13.9587 9.15055C13.7259 10.3144 13.1512 11.3835 12.3074 12.2226C11.4636 13.0618 10.3886 13.6332 9.21817 13.8647C8.04778 14.0962 6.83464 13.9774 5.73216 13.5233C4.62968 13.0692 3.68737 12.3001 3.0244 11.3134C2.36143 10.3267 2.00757 9.16669 2.00757 7.98001C2.00917 6.38919 2.64535 4.86399 3.77651 3.73912C4.90767 2.61425 6.44139 1.98159 8.04109 1.98001Z" fill="#686E7F"/>
</svg>
