<svg width="50" height="45" viewBox="0 0 50 45" fill="none" xmlns="http://www.w3.org/2000/svg">
<path d="M45.8247 2.77734H4.17535C1.86632 2.77734 0 4.64366 0 6.94401V37.4996C0 39.7999 1.86632 41.6662 4.17535 41.6662H45.8247C48.1337 41.6662 50 39.7999 50 37.4996V6.94401C50 4.64366 48.1337 2.77734 45.8247 2.77734ZM4.69618 6.94401H45.3038C45.5903 6.94401 45.8247 7.17838 45.8247 7.46484V11.1107H4.17535V7.46484C4.17535 7.17838 4.40972 6.94401 4.69618 6.94401ZM45.3038 37.4996H4.69618C4.40972 37.4996 4.17535 37.2652 4.17535 36.9787V22.2218H45.8247V36.9787C45.8247 37.2652 45.5903 37.4996 45.3038 37.4996ZM16.6667 28.819V32.2912C16.6667 32.8641 16.1979 33.3329 15.625 33.3329H9.375C8.80208 33.3329 8.33333 32.8641 8.33333 32.2912V28.819C8.33333 28.2461 8.80208 27.7773 9.375 27.7773H15.625C16.1979 27.7773 16.6667 28.2461 16.6667 28.819ZM33.3333 28.819V32.2912C33.3333 32.8641 32.8646 33.3329 32.2917 33.3329H20.4861C19.9132 33.3329 19.4444 32.8641 19.4444 32.2912V28.819C19.4444 28.2461 19.9132 27.7773 20.4861 27.7773H32.2917C32.8646 27.7773 33.3333 28.2461 33.3333 28.819Z" fill="url(#paint0_linear_1246_10215)"/>
<defs>
<linearGradient id="paint0_linear_1246_10215" x1="25" y1="2.77734" x2="25" y2="41.6662" gradientUnits="userSpaceOnUse">
<stop stop-color="#F89B32"/>
<stop offset="1" stop-color="#FDBF21"/>
</linearGradient>
</defs>
</svg>
