<svg width="25" height="25" viewBox="0 0 25 25" fill="none" xmlns="http://www.w3.org/2000/svg">
<g clip-path="url(#clip0_1203_15708)">
<path d="M14.0625 1.5625C14.0625 0.698242 13.3643 0 12.5 0C11.6357 0 10.9375 0.698242 10.9375 1.5625V13.4131L7.35352 9.8291C6.74316 9.21875 5.75195 9.21875 5.1416 9.8291C4.53125 10.4395 4.53125 11.4307 5.1416 12.041L11.3916 18.291C12.002 18.9014 12.9932 18.9014 13.6035 18.291L19.8535 12.041C20.4639 11.4307 20.4639 10.4395 19.8535 9.8291C19.2432 9.21875 18.252 9.21875 17.6416 9.8291L14.0625 13.4131V1.5625ZM3.125 17.1875C1.40137 17.1875 0 18.5889 0 20.3125V21.875C0 23.5986 1.40137 25 3.125 25H21.875C23.5986 25 25 23.5986 25 21.875V20.3125C25 18.5889 23.5986 17.1875 21.875 17.1875H16.9189L14.707 19.3994C13.4863 20.6201 11.5088 20.6201 10.2881 19.3994L8.08105 17.1875H3.125ZM21.0938 22.2656C20.4443 22.2656 19.9219 21.7432 19.9219 21.0938C19.9219 20.4443 20.4443 19.9219 21.0938 19.9219C21.7432 19.9219 22.2656 20.4443 22.2656 21.0938C22.2656 21.7432 21.7432 22.2656 21.0938 22.2656Z" fill="white"/>
</g>
<defs>
<clipPath id="clip0_1203_15708">
<rect width="25" height="25" fill="white"/>
</clipPath>
</defs>
</svg>
