<svg width="27" height="20" viewBox="0 0 27 20" fill="none" xmlns="http://www.w3.org/2000/svg">
<rect x="8" width="4" height="2" rx="1" fill="#686E7F"/>
<path d="M8 19H12C12 19.5523 11.5523 20 11 20H9C8.44772 20 8 19.5523 8 19Z" fill="#686E7F"/>
<path d="M15 13.75V14.1466L15.2718 14.4354L17.6856 17H2.31442L4.7282 14.4354L5 14.1466V13.75V7.375C5 4.34849 7.29483 2 10 2C12.7052 2 15 4.34849 15 7.375V13.75Z" stroke="#686E7F" stroke-width="2"/>
<circle cx="19.5" cy="7.5" r="7.5" fill="#FF0000"/>
<path d="M17.9634 7.05L17.9434 7.03C17.81 7.10333 17.6534 7.15667 17.4734 7.19C17.3 7.22333 17.14 7.24 16.9934 7.24C16.6867 7.24 16.4 7.18667 16.1334 7.08C15.8734 6.97333 15.6467 6.82333 15.4534 6.63C15.2667 6.43 15.12 6.19667 15.0134 5.93C14.9067 5.65667 14.8534 5.35333 14.8534 5.02C14.8534 4.67333 14.9134 4.36333 15.0334 4.09C15.1534 3.81667 15.32 3.58667 15.5334 3.4C15.7467 3.20667 15.9967 3.06 16.2834 2.96C16.5767 2.85333 16.89 2.8 17.2234 2.8C17.5567 2.8 17.8667 2.85333 18.1534 2.96C18.4467 3.06 18.7 3.20667 18.9134 3.4C19.1267 3.58667 19.2934 3.81667 19.4134 4.09C19.5334 4.36333 19.5934 4.67333 19.5934 5.02C19.5934 5.22667 19.5767 5.41667 19.5434 5.59C19.51 5.76333 19.4634 5.93 19.4034 6.09C19.3434 6.25 19.27 6.40667 19.1834 6.56C19.1034 6.70667 19.0167 6.85667 18.9234 7.01L17.0434 10H16.0634L17.9634 7.05ZM17.2234 6.52C17.4367 6.52 17.6367 6.48667 17.8234 6.42C18.01 6.34667 18.17 6.24667 18.3034 6.12C18.4434 5.98667 18.5534 5.83 18.6334 5.65C18.7134 5.46333 18.7534 5.25333 18.7534 5.02C18.7534 4.79333 18.7134 4.58667 18.6334 4.4C18.5534 4.21333 18.4434 4.05667 18.3034 3.93C18.17 3.79667 18.01 3.69667 17.8234 3.63C17.6367 3.55667 17.4367 3.52 17.2234 3.52C17.01 3.52 16.81 3.55667 16.6234 3.63C16.4367 3.69667 16.2734 3.79667 16.1334 3.93C16 4.05667 15.8934 4.21333 15.8134 4.4C15.7334 4.58667 15.6934 4.79333 15.6934 5.02C15.6934 5.25333 15.7334 5.46333 15.8134 5.65C15.8934 5.83 16 5.98667 16.1334 6.12C16.2734 6.24667 16.4367 6.34667 16.6234 6.42C16.81 6.48667 17.01 6.52 17.2234 6.52ZM23.6 10H22.76V4H22.74L21.47 5.07L20.97 4.46L22.87 2.92H23.6V10Z" fill="white"/>
</svg>
