<svg width="337" height="168" viewBox="0 0 337 168" fill="none" xmlns="http://www.w3.org/2000/svg">
<path d="M268.772 159.533H245.586C244.474 159.533 243.572 160.435 243.572 161.547V163.666C243.572 164.778 244.474 165.679 245.586 165.679H268.772C269.884 165.679 270.785 164.778 270.785 163.666V161.547C270.785 160.435 269.884 159.533 268.772 159.533Z" fill="url(#paint0_linear_1203_18449)"/>
<path d="M265.162 153.387H241.976C240.864 153.387 239.962 154.288 239.962 155.401V157.519C239.962 158.631 240.864 159.533 241.976 159.533H265.162C266.274 159.533 267.176 158.631 267.176 157.519V155.401C267.176 154.288 266.274 153.387 265.162 153.387Z" fill="url(#paint1_linear_1203_18449)"/>
<path d="M268.772 147.24H245.586C244.474 147.24 243.572 148.142 243.572 149.254V151.373C243.572 152.485 244.474 153.386 245.586 153.386H268.772C269.884 153.386 270.785 152.485 270.785 151.373V149.254C270.785 148.142 269.884 147.24 268.772 147.24Z" fill="url(#paint2_linear_1203_18449)"/>
<path d="M266.967 141.207H243.781C242.669 141.207 241.767 142.109 241.767 143.221V145.339C241.767 146.452 242.669 147.353 243.781 147.353H266.967C268.079 147.353 268.981 146.452 268.981 145.339V143.221C268.981 142.109 268.079 141.207 266.967 141.207Z" fill="url(#paint3_linear_1203_18449)"/>
<path d="M263.357 135.061H240.171C239.059 135.061 238.157 135.962 238.157 137.074V139.193C238.157 140.305 239.059 141.207 240.171 141.207H263.357C264.469 141.207 265.371 140.305 265.371 139.193V137.074C265.371 135.962 264.469 135.061 263.357 135.061Z" fill="url(#paint4_linear_1203_18449)"/>
<path d="M266.967 128.914H243.781C242.669 128.914 241.767 129.816 241.767 130.928V133.046C241.767 134.159 242.669 135.06 243.781 135.06H266.967C268.079 135.06 268.981 134.159 268.981 133.046V130.928C268.981 129.816 268.079 128.914 266.967 128.914Z" fill="url(#paint5_linear_1203_18449)"/>
<path d="M124.179 73.4812C124.179 73.4812 122.408 70.6676 122.481 69.9057C122.553 69.1437 124.767 68.373 124.767 68.373C124.767 68.373 124.447 67.6991 124.161 66.9596C123.832 66.1064 123.549 65.1654 123.858 65.0717C124.155 64.9811 124.607 65.7558 125.021 66.6566C125.553 67.8129 126.023 69.1754 126.023 69.1754C126.023 69.1754 126.072 67.8297 126.57 67.9153C126.774 67.9505 126.861 68.1937 126.861 69.1584C126.861 70.2577 127.033 71.9717 127.033 71.9717L124.179 73.4812Z" fill="#E98862"/>
<path d="M129.802 86.0959C129.289 86.0959 128.788 85.9429 128.362 85.6563C127.936 85.3698 127.606 84.9627 127.413 84.4873L122.776 73.0698L127.555 71.1301L128.959 74.5871L130.06 69.0801L135.118 70.0923L132.332 84.023C132.223 84.5668 131.942 85.061 131.53 85.4323C131.118 85.8037 130.598 86.0323 130.046 86.0843C129.964 86.0922 129.883 86.0961 129.802 86.0959Z" fill="url(#paint6_linear_1203_18449)"/>
<path d="M121.414 76.7211L121.414 76.7211C121.246 76.7479 121.074 76.712 120.931 76.6202L120.867 76.7197L120.931 76.6202C120.788 76.5284 120.683 76.3871 120.638 76.2233L120.638 76.2232L118.833 69.7481C118.833 69.7481 118.833 69.7481 118.833 69.7481C118.807 69.6542 118.801 69.5559 118.816 69.4595C118.831 69.3631 118.865 69.2709 118.918 69.1889C118.971 69.1069 119.04 69.037 119.122 68.9836C119.203 68.9303 119.295 68.8948 119.391 68.8794C119.391 68.8794 119.391 68.8794 119.391 68.8794L122.259 68.4219L122.259 68.4219C122.427 68.395 122.599 68.4309 122.742 68.5227C122.885 68.6145 122.989 68.7559 123.035 68.9197L123.035 68.9197L124.839 75.3948C124.865 75.4887 124.871 75.5871 124.856 75.6835C124.842 75.7798 124.807 75.872 124.754 75.954C124.702 76.036 124.632 76.106 124.551 76.1593C124.469 76.2127 124.377 76.2482 124.281 76.2636C124.281 76.2636 124.281 76.2636 124.281 76.2636L121.414 76.7211Z" fill="#8D92A0" stroke="#333333" stroke-width="0.236554"/>
<path d="M147.413 135.057C143.113 133.971 142.69 133.809 142.551 133.756L144.328 129.117C144.314 129.112 144.296 129.105 144.273 129.098C144.623 129.213 146.807 129.781 148.63 130.241L147.413 135.057Z" fill="#E98862"/>
<path d="M147.22 141.545C147.177 141.671 147.108 141.787 147.018 141.886C146.928 141.985 146.819 142.064 146.697 142.118C146.575 142.173 146.443 142.202 146.309 142.203C146.176 142.204 146.043 142.178 145.92 142.126C145.75 142.053 145.604 141.934 145.499 141.781C145.394 141.628 145.335 141.449 145.329 141.264L145.332 135.166C145.333 135.048 145.359 134.931 145.409 134.824C145.458 134.717 145.53 134.622 145.62 134.546C146.396 133.968 146.966 133.156 147.246 132.23C147.435 131.499 147.414 130.73 147.187 130.01C147.163 129.945 147.157 129.874 147.171 129.806C147.185 129.738 147.218 129.675 147.266 129.626C147.314 129.576 147.375 129.54 147.443 129.524C147.51 129.508 147.581 129.511 147.647 129.533L150.327 130.432C150.406 130.459 150.479 130.5 150.542 130.555C150.605 130.61 150.656 130.677 150.693 130.751C150.73 130.826 150.752 130.908 150.758 130.991C150.763 131.074 150.752 131.157 150.725 131.236L147.22 141.545Z" fill="#C1D8ED"/>
<path d="M135.642 162.836C135.642 162.836 135.625 157.692 135.625 157.236H140.593C140.593 157.691 140.61 162.82 140.61 162.82L135.642 162.836Z" fill="#E98862"/>
<path d="M148.658 91.6042C145.471 88.4168 130.662 92.716 130.662 92.716L130.648 92.8085L130.345 92.6379C126.579 100.208 121.245 111.539 117.554 119.256C117.273 119.786 117.103 120.369 117.055 120.968C117.008 121.567 117.084 122.169 117.28 122.738C117.475 123.306 117.785 123.828 118.19 124.271C118.595 124.715 119.088 125.07 119.636 125.316L135.757 132.488C134.929 141.581 133.979 150.667 133.188 159.745L141.873 160.829C143.451 149.998 145.074 139.18 146.523 128.336L146.76 127.804L146.604 127.735C147.493 121.054 148.515 114.38 149.015 107.651C149.44 101.928 150.373 93.3189 148.658 91.6042ZM127.708 119.328C130.816 114.148 134.473 108.043 137.638 102.861C137.475 109.665 137.072 116.464 136.542 123.259L127.708 119.328Z" fill="#262626"/>
<path d="M126.05 75.1416L124.359 77.4362C124.359 77.4362 119.813 76.525 119.387 73.0233C119.338 72.62 119.38 71.5046 119.88 71.6544C121.181 72.0442 122.8 74.0405 123.935 74.3061C123.676 73.8423 123.36 73.187 123.564 73.0673C124.1 72.7522 125.542 74.6534 126.05 75.1416Z" fill="#E98862"/>
<path d="M143.131 66.9973C143.131 66.9973 141.229 66.1803 141.229 61.1826L137.405 60.793C137.405 60.793 138.193 65.2092 136.403 66.7778L143.131 66.9973Z" fill="#E98862"/>
<g opacity="0.15">
<path d="M137.099 65.7842L140.032 63.1348L137.572 63.3108C137.569 64.1575 137.409 64.9963 137.099 65.7842Z" fill="black"/>
</g>
<path d="M143.208 59.0823C143.071 60.6098 142.366 62.1034 141.077 62.699C139.676 63.3925 138.127 63.7327 136.564 63.6897C132.413 63.6897 132.46 54.2469 134.268 52.2653C136.076 50.2837 141.916 50.9659 142.865 53.9546C143.356 55.5004 143.339 57.6282 143.208 59.0823Z" fill="#E98862"/>
<path d="M137.186 58.4082C137.376 58.4082 137.529 58.2547 137.529 58.0654C137.529 57.8761 137.376 57.7227 137.186 57.7227C136.997 57.7227 136.844 57.8761 136.844 58.0654C136.844 58.2547 136.997 58.4082 137.186 58.4082Z" fill="#0F1011"/>
<path d="M134.473 58.4082C134.662 58.4082 134.816 58.2547 134.816 58.0654C134.816 57.8761 134.662 57.7227 134.473 57.7227C134.284 57.7227 134.13 57.8761 134.13 58.0654C134.13 58.2547 134.284 58.4082 134.473 58.4082Z" fill="#0F1011"/>
<path d="M133.808 57.3859C133.766 57.3867 133.726 57.3711 133.695 57.3425C133.665 57.3138 133.646 57.2744 133.644 57.2326C133.643 57.1907 133.657 57.1498 133.685 57.1184C133.713 57.0871 133.751 57.0678 133.793 57.0647L134.697 56.9791C134.74 56.9756 134.782 56.9888 134.815 57.0159C134.847 57.0431 134.868 57.082 134.873 57.1243C134.875 57.1454 134.872 57.1666 134.866 57.1869C134.86 57.2071 134.85 57.2259 134.836 57.2422C134.823 57.2585 134.806 57.272 134.788 57.2819C134.769 57.2918 134.748 57.2979 134.727 57.2998L133.823 57.3852L133.808 57.3859Z" fill="#0F1011"/>
<path d="M137.86 57.3861C137.852 57.3861 137.844 57.3855 137.836 57.3842L136.926 57.2423C136.905 57.2392 136.885 57.232 136.867 57.221C136.849 57.2101 136.833 57.1956 136.82 57.1785C136.808 57.1614 136.798 57.142 136.793 57.1214C136.788 57.1008 136.787 57.0794 136.791 57.0584C136.794 57.0374 136.801 57.0172 136.812 56.9991C136.823 56.981 136.838 56.9652 136.855 56.9527C136.872 56.9402 136.892 56.9312 136.912 56.9263C136.933 56.9214 136.954 56.9205 136.975 56.9239L137.885 57.0658C137.925 57.0723 137.961 57.0935 137.986 57.1251C138.011 57.1567 138.023 57.1965 138.02 57.2367C138.017 57.2769 137.999 57.3144 137.97 57.3421C137.941 57.3697 137.902 57.3853 137.862 57.3859L137.86 57.3861Z" fill="#0F1011"/>
<path d="M137.249 60.7695C137.249 60.7695 135.999 61.0061 135.089 60.7695C135.089 60.7695 135.164 61.5994 136.169 61.5994C137.174 61.5994 137.249 60.7695 137.249 60.7695Z" fill="white"/>
<path d="M140.114 55.4072C140.317 62.3085 141.32 62.9403 141.32 62.9403C141.32 62.9403 144.584 60.5939 144.694 56.4306C144.797 52.5274 141.759 50.4772 139.797 50.2042C132.344 49.1677 132.082 55.8979 132.082 55.8979C135.823 56.5392 140.918 55.4796 140.918 55.4796" fill="#0F1011"/>
<path d="M139.032 58.7539C139.03 58.9463 139.065 59.1372 139.137 59.3157C139.209 59.4941 139.316 59.6565 139.451 59.7934C139.586 59.9303 139.747 60.039 139.925 60.1132C140.102 60.1874 140.293 60.2256 140.485 60.2256C140.677 60.2256 140.868 60.1874 141.045 60.1132C141.223 60.039 141.384 59.9303 141.519 59.7934C141.654 59.6565 141.761 59.4941 141.833 59.3157C141.905 59.1372 141.941 58.9463 141.938 58.7539C141.941 58.5622 141.906 58.3718 141.834 58.1941C141.762 58.0163 141.655 57.8548 141.52 57.7193C141.384 57.5837 141.223 57.4768 141.045 57.4049C140.867 57.3331 140.677 57.2977 140.485 57.301C139.45 57.3521 139.032 57.9518 139.032 58.7539Z" fill="#E98862"/>
<path d="M146.045 56.431C147.875 56.431 149.358 54.9477 149.358 53.1179C149.358 51.288 147.875 49.8047 146.045 49.8047C144.215 49.8047 142.732 51.288 142.732 53.1179C142.732 54.9477 144.215 56.431 146.045 56.431Z" fill="#0F1011"/>
<path d="M148.912 67.9356C147.83 66.8545 145.964 66.1567 143.688 66.1543C143.518 67.4814 135.461 67.4861 135.4 66.1851C135.092 66.1898 134.853 66.1945 134.704 66.2016C129.236 66.4382 129.252 70.8447 129.79 75.7156L125.29 73.7311L123.208 78.4504L130.369 81.6089C130.374 81.7508 130.378 81.8927 130.379 82.0347C130.472 89.7132 128.397 91.1609 129.419 93.5075C130.41 95.7856 149.886 96.7318 150.146 92.7246C150.311 90.1745 148.064 87.9485 148.064 82.9785C148.064 78.0085 152.637 71.6613 148.912 67.9356Z" fill="url(#paint7_linear_1203_18449)"/>
<path d="M135.4 66.1851C135.461 67.4861 136.168 69.3998 138.352 69.5441C141.261 69.7357 143.518 67.4814 143.688 66.1543H143.681C140.817 66.1543 137.07 66.159 135.4 66.1851Z" fill="#E98862"/>
<g opacity="0.15">
<path d="M135.816 60.0844C135.808 60.0844 135.799 60.0834 135.791 60.0815L134.948 59.8963C134.931 59.8927 134.916 59.8857 134.902 59.8757C134.889 59.8657 134.878 59.8529 134.87 59.8383C134.862 59.8236 134.857 59.8074 134.855 59.7907C134.854 59.774 134.856 59.7572 134.862 59.7414L135.304 58.4931C135.315 58.4645 135.337 58.4414 135.365 58.4286C135.392 58.4159 135.424 58.4145 135.453 58.4248C135.482 58.435 135.506 58.4561 135.52 58.4836C135.533 58.5111 135.536 58.5428 135.526 58.5721L135.129 59.6941L135.842 59.8507C135.87 59.857 135.895 59.8736 135.912 59.8972C135.929 59.9209 135.937 59.9499 135.934 59.9788C135.93 60.0078 135.917 60.0345 135.895 60.054C135.873 60.0734 135.845 60.0843 135.816 60.0844Z" fill="black"/>
</g>
<path d="M129.609 164.858C129.475 164.858 129.343 164.829 129.221 164.776C129.099 164.722 128.989 164.643 128.899 164.545C128.808 164.446 128.739 164.331 128.695 164.204C128.652 164.078 128.634 163.944 128.645 163.811C128.659 163.626 128.726 163.45 128.837 163.302C128.949 163.154 129.1 163.041 129.274 162.976L135.056 161.04C135.168 161.002 135.286 160.99 135.404 161.003C135.521 161.016 135.634 161.054 135.735 161.115C136.53 161.667 137.481 161.949 138.448 161.92C139.201 161.866 139.924 161.602 140.534 161.157C140.588 161.113 140.653 161.085 140.722 161.077C140.791 161.069 140.861 161.08 140.923 161.11C140.986 161.139 141.039 161.186 141.076 161.245C141.113 161.304 141.132 161.372 141.132 161.441V164.268C141.132 164.352 141.116 164.434 141.084 164.511C141.052 164.588 141.005 164.658 140.946 164.717C140.887 164.776 140.817 164.823 140.739 164.854C140.662 164.886 140.58 164.902 140.496 164.902L129.609 164.858Z" fill="#C1D8ED"/>
<path d="M336.904 166.469H0V167.382H336.904V166.469Z" fill="#3F3D56"/>
<path d="M162.294 164.244H228.755C233.845 164.244 237.971 160.118 237.971 155.029L237.971 11.2941C237.971 6.20451 233.845 2.07861 228.755 2.07861H162.294C157.204 2.07861 153.079 6.20451 153.079 11.2941V155.029C153.079 160.118 157.204 164.244 162.294 164.244Z" fill="white"/>
<path d="M151 155.029V11.2953C151.003 8.30087 152.194 5.42998 154.311 3.31243C156.428 1.19489 159.299 0.00362918 162.293 0H228.755C231.75 0.00346043 234.621 1.19465 236.738 3.31221C238.856 5.42977 240.046 8.30076 240.049 11.2953V155.029C240.046 158.023 238.855 160.894 236.738 163.011C234.621 165.129 231.75 166.32 228.755 166.323H162.293C159.299 166.319 156.429 165.128 154.311 163.011C152.194 160.894 151.003 158.023 151 155.029ZM162.293 4.15737C160.401 4.15973 158.587 4.91258 157.249 6.25074C155.912 7.5889 155.159 9.40309 155.157 11.2953V155.029C155.159 156.921 155.912 158.735 157.25 160.073C158.588 161.411 160.401 162.163 162.293 162.166H228.755C230.648 162.163 232.462 161.411 233.8 160.073C235.137 158.735 235.89 156.921 235.892 155.029V11.2953C235.89 9.40314 235.137 7.5891 233.8 6.25113C232.462 4.91316 230.648 4.16052 228.755 4.15833L162.293 4.15737Z" fill="#DEE8F5"/>
<path d="M205.85 11.9512L185.199 11.9512C184.078 11.9512 183.003 11.5059 182.211 10.7132C181.418 9.92061 180.973 8.84557 180.973 7.72461V2.07793L210.077 2.07793V7.72461C210.077 8.84557 209.631 9.92061 208.839 10.7132C208.046 11.5059 206.971 11.9512 205.85 11.9512Z" fill="#DEE8F5"/>
<path d="M215.922 30H176.078C173.273 30 171 31.9294 171 34.3095V44.6905C171 47.0706 173.273 49 176.078 49H215.922C218.727 49 221 47.0706 221 44.6905V34.3095C221 31.9294 218.727 30 215.922 30Z" fill="#262626"/>
<path d="M226.125 72.8867H164.924C162.886 72.8867 161.234 74.5386 161.234 76.5763V111.243C161.234 113.28 162.886 114.932 164.924 114.932H226.125C228.162 114.932 229.814 113.28 229.814 111.243V76.5763C229.814 74.5386 228.162 72.8867 226.125 72.8867Z" fill="url(#paint8_linear_1203_18449)"/>
<path d="M175.313 78.5684H168.918C167.812 78.5684 166.916 79.4644 166.916 80.5697V84.2944C166.916 85.3998 167.812 86.2958 168.918 86.2958H175.313C176.418 86.2958 177.314 85.3998 177.314 84.2944V80.5697C177.314 79.4644 176.418 78.5684 175.313 78.5684Z" fill="white"/>
<path d="M177.314 79.4261V81.2393H173.791L173.223 80.6712V78.5703H176.457C176.684 78.5702 176.902 78.6603 177.062 78.8208C177.223 78.9813 177.313 79.199 177.314 79.4261Z" fill="#262626"/>
<path d="M177.314 83.625V85.4382C177.314 85.5508 177.292 85.6623 177.249 85.7663C177.206 85.8703 177.142 85.9648 177.063 86.0444C176.983 86.124 176.889 86.1871 176.785 86.2301C176.681 86.2732 176.569 86.2953 176.457 86.2953H173.223V84.1364L173.791 83.6263L177.314 83.625Z" fill="#262626"/>
<path d="M170.95 78.5703V80.6724L170.44 81.2406H166.916V79.4274C166.916 79.3148 166.938 79.2033 166.981 79.0993C167.024 78.9953 167.087 78.9008 167.167 78.8212C167.247 78.7417 167.341 78.6785 167.445 78.6355C167.549 78.5924 167.661 78.5703 167.773 78.5703H170.95Z" fill="#262626"/>
<path d="M170.95 84.1364V86.2953H167.773C167.661 86.2953 167.549 86.2732 167.445 86.2301C167.341 86.1871 167.247 86.124 167.167 86.0444C167.087 85.9648 167.024 85.8703 166.981 85.7663C166.938 85.6623 166.916 85.5508 166.916 85.4382V83.625H170.439L170.95 84.1364Z" fill="#262626"/>
<path d="M178.557 93.5138H167.798C167.564 93.5138 167.34 93.4209 167.175 93.2555C167.009 93.0901 166.916 92.8658 166.916 92.6319C166.916 92.398 167.009 92.1737 167.175 92.0083C167.34 91.8429 167.564 91.75 167.798 91.75H178.557C178.791 91.75 179.016 91.8429 179.181 92.0083C179.346 92.1737 179.439 92.398 179.439 92.6319C179.439 92.8658 179.346 93.0901 179.181 93.2555C179.016 93.4209 178.791 93.5138 178.557 93.5138Z" fill="white"/>
<path d="M193.697 93.5138H182.937C182.704 93.5138 182.479 93.4209 182.314 93.2555C182.148 93.0901 182.056 92.8658 182.056 92.6319C182.056 92.398 182.148 92.1737 182.314 92.0083C182.479 91.8429 182.704 91.75 182.937 91.75H193.697C193.931 91.75 194.155 91.8429 194.32 92.0083C194.486 92.1737 194.579 92.398 194.579 92.6319C194.579 92.8658 194.486 93.0901 194.32 93.2555C194.155 93.4209 193.931 93.5138 193.697 93.5138Z" fill="white"/>
<path d="M208.837 93.5138H198.077C197.843 93.5138 197.619 93.4209 197.453 93.2555C197.288 93.0901 197.195 92.8658 197.195 92.6319C197.195 92.398 197.288 92.1737 197.453 92.0083C197.619 91.8429 197.843 91.75 198.077 91.75H208.837C209.07 91.75 209.295 91.8429 209.46 92.0083C209.626 92.1737 209.719 92.398 209.719 92.6319C209.719 92.8658 209.626 93.0901 209.46 93.2555C209.295 93.4209 209.07 93.5138 208.837 93.5138Z" fill="white"/>
<path d="M223.976 93.5138H213.217C212.983 93.5138 212.758 93.4209 212.593 93.2555C212.428 93.0901 212.335 92.8658 212.335 92.6319C212.335 92.398 212.428 92.1737 212.593 92.0083C212.758 91.8429 212.983 91.75 213.217 91.75H223.976C224.21 91.75 224.434 91.8429 224.6 92.0083C224.765 92.1737 224.858 92.398 224.858 92.6319C224.858 92.8658 224.765 93.0901 224.6 93.2555C224.434 93.4209 224.21 93.5138 223.976 93.5138Z" fill="white"/>
<path d="M224.133 103.057C224.123 104.256 223.639 105.403 222.788 106.247C221.937 107.091 220.786 107.565 219.587 107.565C218.388 107.565 217.238 107.091 216.386 106.247C215.535 105.403 215.052 104.256 215.042 103.057C215.042 102.38 215.196 101.711 215.491 101.101C215.786 100.491 216.215 99.9557 216.746 99.5347C217.41 98.9911 218.215 98.6477 219.067 98.5445C219.919 98.4414 220.783 98.5827 221.557 98.9521C222.332 99.3215 222.985 99.9036 223.441 100.631C223.897 101.357 224.137 102.199 224.133 103.057Z" fill="white"/>
<path d="M214.473 106.581C213.807 107.124 213 107.467 212.147 107.57C211.293 107.673 210.428 107.532 209.651 107.164C208.874 106.795 208.218 106.213 207.759 105.486C207.299 104.759 207.055 103.917 207.055 103.057C207.055 102.198 207.299 101.355 207.759 100.629C208.218 99.9018 208.874 99.3202 209.651 98.9513C210.428 98.5824 211.293 98.4414 212.147 98.5446C213 98.6478 213.807 98.9909 214.473 99.5342C213.947 99.9595 213.521 100.496 213.227 101.105C212.932 101.714 212.776 102.381 212.769 103.057C212.769 103.735 212.923 104.404 213.218 105.014C213.513 105.624 213.942 106.16 214.473 106.581Z" fill="#262626"/>
<path d="M172.654 44.077L173.811 42.2829C174.728 42.9844 175.53 43.344 176.383 43.344C177.405 43.344 177.855 42.92 177.855 42.1005C177.855 40.2446 173.094 40.2781 173.094 37.023C173.094 34.9304 174.543 33.5977 176.829 33.5977C177.478 33.5883 178.121 33.7204 178.714 33.9847C179.307 34.2489 179.836 34.6391 180.263 35.1281L178.936 36.648C178.28 36.0518 177.724 35.7378 176.971 35.7378C176.103 35.7378 175.632 36.0885 175.632 36.898C175.632 38.6182 180.394 38.468 180.394 41.9159C180.394 43.9884 179.023 45.487 176.383 45.487C175.015 45.4553 173.7 44.9579 172.654 44.077ZM175.827 31.8281H177.586V34.426H175.827V31.8281ZM175.827 44.401H177.586V47.2514H175.827V44.401Z" fill="white"/>
<path d="M185.08 36.2208V43.3008H183.88V37.6008L182.55 38.8308L181.85 38.0008L183.99 36.2208H185.08ZM190.078 36.1008C191.688 36.1008 192.638 37.3408 192.638 39.7608C192.638 42.1708 191.698 43.4208 190.078 43.4208C188.458 43.4208 187.518 42.1708 187.518 39.7608C187.518 37.3408 188.468 36.1008 190.078 36.1008ZM188.718 39.7608C188.718 41.2808 189.158 42.2808 190.078 42.2808C190.978 42.2808 191.438 41.3308 191.438 39.7608C191.438 38.1708 190.978 37.2408 190.068 37.2408C189.198 37.2408 188.718 38.1608 188.718 39.7608ZM195.996 36.1008C197.606 36.1008 198.556 37.3408 198.556 39.7608C198.556 42.1708 197.616 43.4208 195.996 43.4208C194.376 43.4208 193.436 42.1708 193.436 39.7608C193.436 37.3408 194.386 36.1008 195.996 36.1008ZM194.636 39.7608C194.636 41.2808 195.076 42.2808 195.996 42.2808C196.896 42.2808 197.356 41.3308 197.356 39.7608C197.356 38.1708 196.896 37.2408 195.986 37.2408C195.116 37.2408 194.636 38.1608 194.636 39.7608ZM200.434 41.8208C200.854 41.8208 201.234 42.1408 201.234 42.5808C201.234 43.0208 200.864 43.3608 200.434 43.3608C200.014 43.3608 199.634 43.0308 199.634 42.6008C199.634 42.1608 200.004 41.8208 200.434 41.8208ZM204.873 36.1008C206.483 36.1008 207.433 37.3408 207.433 39.7608C207.433 42.1708 206.493 43.4208 204.873 43.4208C203.253 43.4208 202.313 42.1708 202.313 39.7608C202.313 37.3408 203.263 36.1008 204.873 36.1008ZM203.513 39.7608C203.513 41.2808 203.953 42.2808 204.873 42.2808C205.773 42.2808 206.233 41.3308 206.233 39.7608C206.233 38.1708 205.773 37.2408 204.863 37.2408C203.993 37.2408 203.513 38.1608 203.513 39.7608ZM210.791 36.1008C212.401 36.1008 213.351 37.3408 213.351 39.7608C213.351 42.1708 212.411 43.4208 210.791 43.4208C209.171 43.4208 208.231 42.1708 208.231 39.7608C208.231 37.3408 209.181 36.1008 210.791 36.1008ZM209.431 39.7608C209.431 41.2808 209.871 42.2808 210.791 42.2808C211.691 42.2808 212.151 41.3308 212.151 39.7608C212.151 38.1708 211.691 37.2408 210.781 37.2408C209.911 37.2408 209.431 38.1608 209.431 39.7608ZM216.709 36.1008C218.319 36.1008 219.269 37.3408 219.269 39.7608C219.269 42.1708 218.329 43.4208 216.709 43.4208C215.089 43.4208 214.149 42.1708 214.149 39.7608C214.149 37.3408 215.099 36.1008 216.709 36.1008ZM215.349 39.7608C215.349 41.2808 215.789 42.2808 216.709 42.2808C217.609 42.2808 218.069 41.3308 218.069 39.7608C218.069 38.1708 217.609 37.2408 216.699 37.2408C215.829 37.2408 215.349 38.1608 215.349 39.7608Z" fill="white"/>
<path d="M80.9417 163.961L76.0088 163.374C76.2307 161.507 76.4819 159.264 76.4989 158.896C76.4989 158.92 76.4989 158.939 76.4989 158.954H81.4666C81.4654 159.103 81.4654 159.556 80.9417 163.961Z" fill="#E98862"/>
<path d="M58.7818 164.554L53.8142 164.538C53.8142 164.538 53.831 159.408 53.831 158.955H58.7986C58.7989 159.41 58.7818 164.554 58.7818 164.554Z" fill="#E98862"/>
<path d="M74.1392 163.323L82.6575 161.313C77.1423 139.661 72.5141 117.561 68.0316 95.676L67.9684 95.6947L67.7837 94.4341L49.7874 93.3223C49.7874 93.3223 49.0869 102.136 49.0872 105.08C49.0888 119.511 51.3841 143.504 52.5243 162.702L61.2654 162.255C60.7509 143.638 59.3617 124.994 59.4615 106.372C64.6955 125.211 69.9158 144.252 74.1392 163.323Z" fill="#262626"/>
<path d="M64.8211 166.475C64.9547 166.475 65.0867 166.447 65.209 166.393C65.3312 166.339 65.441 166.26 65.5315 166.162C65.622 166.064 65.6912 165.948 65.7349 165.822C65.7786 165.695 65.7957 165.561 65.7853 165.428C65.7709 165.244 65.7041 165.067 65.5927 164.919C65.4813 164.771 65.33 164.658 65.1566 164.593L59.3745 162.657C59.2625 162.62 59.1438 162.607 59.0265 162.62C58.9092 162.633 58.7962 162.672 58.6951 162.732C57.9002 163.284 56.9493 163.566 55.9823 163.537C55.2291 163.483 54.5062 163.219 53.8959 162.775C53.8422 162.731 53.7772 162.703 53.7083 162.694C53.6394 162.686 53.5696 162.697 53.5069 162.727C53.4442 162.757 53.3913 162.804 53.3542 162.862C53.3172 162.921 53.2977 162.989 53.2979 163.058V165.887C53.2979 165.971 53.3143 166.053 53.3463 166.13C53.3783 166.207 53.4252 166.277 53.4843 166.336C53.5434 166.395 53.6136 166.441 53.6907 166.473C53.7679 166.505 53.8505 166.521 53.9339 166.521L64.8211 166.475Z" fill="#C1D8ED"/>
<path d="M86.9945 166.475C87.128 166.475 87.2601 166.447 87.3823 166.393C87.5045 166.339 87.6142 166.26 87.7047 166.162C87.7952 166.064 87.8645 165.948 87.9081 165.822C87.9518 165.695 87.969 165.561 87.9587 165.428C87.9443 165.244 87.8774 165.067 87.766 164.919C87.6546 164.771 87.5032 164.658 87.3297 164.593L81.5478 162.657C81.4358 162.62 81.317 162.607 81.1997 162.62C81.0824 162.633 80.9693 162.672 80.8682 162.732C80.0734 163.284 79.1226 163.566 78.1556 163.537C77.4024 163.483 76.6794 163.219 76.069 162.775C76.0153 162.73 75.9503 162.703 75.8814 162.694C75.8126 162.686 75.7427 162.697 75.68 162.727C75.6173 162.757 75.5644 162.804 75.5275 162.862C75.4905 162.921 75.471 162.989 75.4712 163.058V165.887C75.4712 165.971 75.4877 166.053 75.5197 166.13C75.5517 166.207 75.5986 166.277 75.6577 166.336C75.7168 166.395 75.7869 166.441 75.8641 166.473C75.9412 166.505 76.0239 166.521 76.1073 166.521L86.9945 166.475Z" fill="#C1D8ED"/>
<path d="M55.2334 69.0892C55.2334 69.0892 57.0624 68.1193 56.6541 63.1384L60.4333 62.4375C60.4333 62.4375 60.0075 66.9034 61.9208 68.3213L55.2334 69.0892Z" fill="#E98862"/>
<g opacity="0.15">
<path d="M61.1471 67.3865L58.0076 64.9845L60.4734 64.959C60.5448 65.8031 60.7733 66.6264 61.1471 67.3865Z" fill="black"/>
</g>
<path d="M54.5105 61.2053C54.7722 62.7164 55.5968 64.1475 56.9298 64.6353C58.3829 65.2119 59.955 65.4243 61.509 65.2539C65.6463 64.9147 64.8279 55.5079 62.8638 53.68C60.8996 51.8522 55.1348 53.0101 54.4334 56.0664C54.0708 57.6475 54.2615 59.7668 54.5105 61.2053Z" fill="#E98862"/>
<path d="M65.7576 52.8081C65.7576 51.5586 64.2025 49.5113 60.054 52.335L60.05 52.3376C58.9722 52.3075 57.8954 52.4253 56.8496 52.6877C56.1004 52.9041 55.4002 53.264 54.7881 53.7472C53.6335 54.684 52.7918 56.2249 53.184 58.7019C53.8653 63.0057 55.6281 64.1544 56.5168 64.6824C56.7432 64.817 56.7981 64.7075 56.8766 64.4561C57.123 63.5268 57.2993 62.5804 57.4039 61.6247C57.539 60.6312 58.4317 59.9996 58.3239 58.8097C58.286 58.3939 57.6163 56.87 59.6892 56.8527C60.855 56.8433 60.4192 56.8896 61.6635 56.8896C61.8407 56.8896 61.9975 56.8813 62.1416 56.8688H62.1433C66.4388 56.869 65.7576 54.0578 65.7576 52.8081Z" fill="#0F1011"/>
<path d="M58.6458 60.537C58.6642 60.7287 58.6443 60.9222 58.5873 61.1061C58.5303 61.29 58.4373 61.4608 58.3137 61.6084C58.1901 61.7561 58.0384 61.8778 57.8674 61.9663C57.6964 62.0548 57.5095 62.1085 57.3176 62.1242C57.1256 62.1398 56.9325 62.1172 56.7494 62.0576C56.5663 61.998 56.3969 61.9026 56.251 61.7769C56.1051 61.6512 55.9856 61.4978 55.8995 61.3256C55.8134 61.1534 55.7624 60.9657 55.7494 60.7736C55.7305 60.5828 55.7501 60.3901 55.8072 60.207C55.8643 60.024 55.9577 59.8543 56.0817 59.708C56.2058 59.5618 56.358 59.442 56.5293 59.3558C56.7006 59.2697 56.8875 59.2189 57.0789 59.2064C58.1145 59.1738 58.5803 59.737 58.6458 60.537Z" fill="#E98862"/>
<path d="M58.0074 55.9277L56.9365 56.3195C56.9365 56.3195 57.315 61.6656 57.6154 63.1263C57.9159 64.587 58.7526 65.5392 59.7021 65.6203C61.16 65.7454 62.2164 65.7554 63.2859 65.3731C64.4923 64.9421 64.3229 61.7065 64.3229 61.7065C64.3229 61.7065 60.4423 62.1269 59.3685 61.6119C58.2948 61.0969 58.0074 55.9277 58.0074 55.9277Z" fill="#0F1011"/>
<path d="M60.4287 60.043C60.618 60.043 60.7715 59.8895 60.7715 59.7002C60.7715 59.5109 60.618 59.3574 60.4287 59.3574C60.2394 59.3574 60.0859 59.5109 60.0859 59.7002C60.0859 59.8895 60.2394 60.043 60.4287 60.043Z" fill="#0F1011"/>
<path d="M63.133 59.8203C63.3224 59.8203 63.4758 59.6668 63.4758 59.4775C63.4758 59.2882 63.3224 59.1348 63.133 59.1348C62.9437 59.1348 62.7903 59.2882 62.7903 59.4775C62.7903 59.6668 62.9437 59.8203 63.133 59.8203Z" fill="#0F1011"/>
<path d="M63.727 58.7476H63.7258L62.8177 58.736C62.7965 58.7358 62.7756 58.7314 62.7562 58.723C62.7368 58.7147 62.7192 58.7026 62.7044 58.6875C62.6896 58.6723 62.678 58.6544 62.6702 58.6348C62.6623 58.6152 62.6584 58.5942 62.6587 58.573C62.6608 58.5308 62.6788 58.491 62.7091 58.4615C62.7394 58.432 62.7797 58.4151 62.8219 58.4141L63.7301 58.4254C63.7728 58.4257 63.8136 58.4429 63.8437 58.4734C63.8737 58.5038 63.8904 58.5448 63.8901 58.5876C63.8898 58.6303 63.8726 58.6712 63.8422 58.7012C63.8117 58.7312 63.7707 58.7479 63.7279 58.7476H63.727Z" fill="#0F1011"/>
<path d="M59.6885 59.0792C59.649 59.0793 59.6107 59.0649 59.5811 59.0387C59.5515 59.0124 59.5326 58.9762 59.528 58.9369C59.5233 58.8976 59.5333 58.858 59.5561 58.8256C59.5788 58.7932 59.6126 58.7703 59.6512 58.7613L60.5465 58.546C60.5672 58.5407 60.5887 58.5396 60.6098 58.5427C60.6309 58.5459 60.6512 58.5531 60.6694 58.5641C60.6877 58.5752 60.7036 58.5897 60.7162 58.6069C60.7288 58.6241 60.7379 58.6436 60.7429 58.6644C60.7479 58.6851 60.7487 58.7066 60.7453 58.7277C60.7419 58.7488 60.7344 58.7689 60.7231 58.7871C60.7119 58.8052 60.6972 58.8209 60.6798 58.8333C60.6624 58.8457 60.6428 58.8545 60.622 58.8592L59.7266 59.0747C59.7141 59.0776 59.7014 59.0791 59.6885 59.0792Z" fill="#0F1011"/>
<g opacity="0.15">
<path d="M61.9516 61.5999C61.9233 61.5999 61.8959 61.5898 61.8744 61.5713C61.8529 61.5528 61.8388 61.5272 61.8346 61.4992C61.8304 61.4712 61.8363 61.4426 61.8514 61.4186C61.8665 61.3946 61.8897 61.3769 61.9168 61.3686L62.614 61.1545L62.1264 60.0685C62.1195 60.0542 62.1155 60.0387 62.1147 60.0229C62.1138 60.0071 62.1162 59.9912 62.1216 59.9764C62.127 59.9615 62.1353 59.9478 62.1461 59.9362C62.1569 59.9246 62.1699 59.9153 62.1844 59.9088C62.1988 59.9023 62.2144 59.8988 62.2303 59.8985C62.2461 59.8981 62.2619 59.901 62.2766 59.9069C62.2913 59.9127 62.3047 59.9215 62.316 59.9326C62.3272 59.9438 62.3361 59.9571 62.3422 59.9717L62.8846 61.1798C62.8915 61.1951 62.895 61.2117 62.895 61.2284C62.895 61.2452 62.8914 61.2618 62.8845 61.2771C62.8776 61.2923 62.8675 61.306 62.8549 61.3171C62.8423 61.3281 62.8275 61.3364 62.8115 61.3414L61.9864 61.5947C61.9751 61.5981 61.9634 61.5999 61.9516 61.5999Z" fill="black"/>
</g>
<path d="M60.5872 62.3991C60.5872 62.3991 61.8525 62.5325 62.7398 62.2227C62.7398 62.2227 62.7327 63.0558 61.7314 63.1381C60.73 63.2204 60.5872 62.3991 60.5872 62.3991Z" fill="white"/>
<path d="M87.9525 86.4011H73.8824C73.4659 86.401 73.056 86.2963 72.6905 86.0964C72.3251 85.8964 72.0158 85.6078 71.7911 85.2571L62.9009 71.3789L67.0846 68.6992L75.2419 81.4334H87.9532L87.9525 86.4011Z" fill="url(#paint9_linear_1203_18449)"/>
<path d="M68.9537 94.8664C67.9625 97.1445 48.487 98.0907 48.2268 94.0834C48.0612 91.5334 50.3085 89.3074 50.3085 84.3374C50.3085 79.3674 45.7359 73.0207 49.4616 69.2949C50.5427 68.2139 52.4091 67.516 54.6847 67.5137C54.8551 68.8407 62.9121 68.8455 62.9736 67.5444C63.2811 67.5491 63.5201 67.5539 63.6691 67.561C71.518 67.8993 68.069 76.8315 67.9933 83.3936C67.9017 91.0721 69.9763 92.5198 68.9537 94.8664Z" fill="url(#paint10_linear_1203_18449)"/>
<path d="M62.9739 67.5444C62.9124 68.8455 62.2051 70.7592 60.0217 70.9035C57.1121 71.0951 54.8554 68.8407 54.6851 67.5137H54.6922C57.5568 67.5137 61.3038 67.5184 62.9739 67.5444Z" fill="#E98862"/>
<path d="M69.436 87.1725C69.436 87.1725 70.0057 84.0609 72.207 84.6023C73.5958 84.9442 77.6322 84.3341 77.6934 86.1177C77.7467 87.6652 73.9559 88.0776 72.7021 87.9486C71.5769 87.833 69.436 87.1725 69.436 87.1725Z" fill="#E98862"/>
<path d="M71.4006 84.5675C71.4006 84.5675 74.6753 84.0845 75.4067 84.3953C76.0544 84.6707 74.4605 85.5308 74.4605 85.5308L71.4006 84.5675Z" fill="#E98862"/>
<path d="M72.4478 88.9007L57.8098 88.4546C57.3529 88.4407 56.9078 88.3056 56.5203 88.0631C56.1328 87.8206 55.8167 87.4794 55.6044 87.0745L48.3774 73.294L52.9455 70.8984L59.4725 83.3447L72.6049 83.7452L72.4478 88.9007Z" fill="url(#paint11_linear_1203_18449)"/>
<circle cx="90" cy="85" r="13.0441" fill="#E4F1FF" stroke="url(#paint12_linear_1203_18449)" stroke-width="1.91176"/>
<circle cx="90.0003" cy="84.9998" r="11.9412" fill="url(#paint13_linear_1203_18449)"/>
<circle cx="90.0003" cy="84.9998" r="11.75" stroke="white" stroke-opacity="0.2" stroke-width="0.382353"/>
<g filter="url(#filter0_d_1203_18449)">
<path d="M90.1719 93.3114H89.0019C88.7289 93.3114 88.5924 93.1749 88.5924 92.9019V91.4004H88.4559C87.4679 91.4004 86.6944 91.1209 86.1354 90.5619C85.5894 89.9899 85.3164 89.2034 85.3164 88.2024V87.8319C85.3164 87.5589 85.4529 87.4224 85.7259 87.4224H87.3834C87.6564 87.4224 87.7929 87.5589 87.7929 87.8319V87.9684C87.7929 88.4624 87.8904 88.8004 88.0854 88.9824C88.2804 89.1644 88.6379 89.2554 89.1579 89.2554H89.9379C90.4449 89.2554 90.7959 89.1579 90.9909 88.9629C91.1989 88.7679 91.3029 88.4039 91.3029 87.8709V87.5784C91.3029 87.2534 91.2054 86.9999 91.0104 86.8179C90.8154 86.6359 90.5879 86.5124 90.3279 86.4474C90.0939 86.3954 89.6324 86.3369 88.9434 86.2719C88.2674 86.2069 87.7604 86.1289 87.4224 86.0379C87.0844 85.9339 86.7399 85.7649 86.3889 85.5309C85.6609 85.0629 85.2969 84.1464 85.2969 82.7814V82.0599C85.2969 81.0329 85.5699 80.2464 86.1159 79.7004C86.6749 79.1414 87.4549 78.8619 88.4559 78.8619H88.5924V77.3214C88.5924 77.0484 88.7289 76.9119 89.0019 76.9119H90.1719C90.4449 76.9119 90.5814 77.0484 90.5814 77.3214V78.8619H90.6204C91.5434 78.8619 92.2714 79.1479 92.8044 79.7199C93.3374 80.2919 93.6039 81.0719 93.6039 82.0599V82.4304C93.6039 82.7034 93.4674 82.8399 93.1944 82.8399H91.5369C91.2639 82.8399 91.1274 82.7034 91.1274 82.4304V82.2939C91.1274 81.7999 91.0299 81.4619 90.8349 81.2799C90.6529 81.0979 90.2954 81.0069 89.7624 81.0069H89.1384C88.6054 81.0069 88.2414 81.1109 88.0464 81.3189C87.8644 81.5139 87.7734 81.9039 87.7734 82.4889V82.8789C87.7734 83.1649 87.8709 83.3924 88.0659 83.5614C88.2609 83.7174 88.4819 83.8214 88.7289 83.8734C89.0149 83.9254 89.4959 83.9839 90.1719 84.0489C90.8609 84.1009 91.3744 84.1854 91.7124 84.3024C92.0634 84.4064 92.4079 84.5754 92.7459 84.8094C93.4349 85.3034 93.7794 86.1874 93.7794 87.4614V88.2024C93.7794 89.2164 93.4934 90.0029 92.9214 90.5619C92.3624 91.1209 91.5954 91.4004 90.6204 91.4004H90.5814V92.9019C90.5814 93.1749 90.4449 93.3114 90.1719 93.3114Z" fill="url(#paint14_radial_1203_18449)" shape-rendering="crispEdges"/>
<path d="M88.5924 91.4004H88.7007V91.2921H88.5924V91.4004ZM86.1354 90.5619L86.057 90.6367L86.0588 90.6385L86.1354 90.5619ZM88.0854 88.9824L88.0115 89.0616L88.0854 88.9824ZM90.9909 88.9629L90.9168 88.8838L90.9143 88.8863L90.9909 88.9629ZM91.0104 86.8179L91.0843 86.7387L91.0104 86.8179ZM90.3279 86.4474L90.3542 86.3423L90.3514 86.3416L90.3279 86.4474ZM88.9434 86.2719L88.933 86.3797L88.9332 86.3797L88.9434 86.2719ZM87.4224 86.0379L87.3905 86.1415L87.3942 86.1425L87.4224 86.0379ZM86.3889 85.5309L86.449 85.4407L86.4475 85.4398L86.3889 85.5309ZM86.1159 79.7004L86.0393 79.6238L86.1159 79.7004ZM88.5924 78.8619V78.9702H88.7007V78.8619H88.5924ZM90.5814 78.8619H90.4731V78.9702H90.5814V78.8619ZM92.8044 79.7199L92.8837 79.646L92.8044 79.7199ZM90.8349 81.2799L90.7583 81.3565L90.761 81.3591L90.8349 81.2799ZM88.0464 81.3189L87.9674 81.2448L87.9672 81.245L88.0464 81.3189ZM88.0659 83.5614L87.9949 83.6433L87.9982 83.646L88.0659 83.5614ZM88.7289 83.8734L88.7066 83.9794L88.7095 83.98L88.7289 83.8734ZM90.1719 84.0489L90.1615 84.1567L90.1637 84.1569L90.1719 84.0489ZM91.7124 84.3024L91.6769 84.4049L91.6816 84.4063L91.7124 84.3024ZM92.7459 84.8094L92.809 84.7213L92.8076 84.7203L92.7459 84.8094ZM92.9214 90.5619L92.8457 90.4844L92.8448 90.4853L92.9214 90.5619ZM90.5814 91.4004V91.2921H90.4731V91.4004H90.5814ZM90.1719 93.2031H89.0019V93.4197H90.1719V93.2031ZM89.0019 93.2031C88.8821 93.2031 88.8121 93.1732 88.7714 93.1324C88.7306 93.0916 88.7007 93.0217 88.7007 92.9019H88.4841C88.4841 93.0551 88.5224 93.1899 88.6182 93.2856C88.7139 93.3814 88.8487 93.4197 89.0019 93.4197V93.2031ZM88.7007 92.9019V91.4004H88.4841V92.9019H88.7007ZM88.5924 91.2921H88.4559V91.5087H88.5924V91.2921ZM88.4559 91.2921C87.4891 91.2921 86.7459 91.0192 86.212 90.4853L86.0588 90.6385C86.6429 91.2226 87.4468 91.5087 88.4559 91.5087V91.2921ZM86.2138 90.4871C85.6918 89.9402 85.4247 89.1833 85.4247 88.2024H85.2081C85.2081 89.2235 85.4871 90.0396 86.057 90.6367L86.2138 90.4871ZM85.4247 88.2024V87.8319H85.2081V88.2024H85.4247ZM85.4247 87.8319C85.4247 87.7121 85.4546 87.6421 85.4954 87.6014C85.5361 87.5606 85.6061 87.5307 85.7259 87.5307V87.3141C85.5727 87.3141 85.4379 87.3524 85.3422 87.4482C85.2464 87.5439 85.2081 87.6787 85.2081 87.8319H85.4247ZM85.7259 87.5307H87.3834V87.3141H85.7259V87.5307ZM87.3834 87.5307C87.5032 87.5307 87.5732 87.5606 87.6139 87.6014C87.6547 87.6421 87.6846 87.7121 87.6846 87.8319H87.9012C87.9012 87.6787 87.8629 87.5439 87.7671 87.4482C87.6714 87.3524 87.5366 87.3141 87.3834 87.3141V87.5307ZM87.6846 87.8319V87.9684H87.9012V87.8319H87.6846ZM87.6846 87.9684C87.6846 88.4691 87.7819 88.8473 88.0115 89.0616L88.1593 88.9032C87.9989 88.7535 87.9012 88.4557 87.9012 87.9684H87.6846ZM88.0115 89.0616C88.2385 89.2735 88.6331 89.3637 89.1579 89.3637V89.1471C88.6427 89.1471 88.3223 89.0553 88.1593 88.9032L88.0115 89.0616ZM89.1579 89.3637H89.9379V89.1471H89.1579V89.3637ZM89.9379 89.3637C90.4519 89.3637 90.8407 89.2663 91.0675 89.0395L90.9143 88.8863C90.7511 89.0495 90.438 89.1471 89.9379 89.1471V89.3637ZM91.065 89.0419C91.3075 88.8145 91.4112 88.4103 91.4112 87.8709H91.1946C91.1946 88.3975 91.0903 88.7212 90.9168 88.8839L91.065 89.0419ZM91.4112 87.8709V87.5784H91.1946V87.8709H91.4112ZM91.4112 87.5784C91.4112 87.2304 91.306 86.9455 91.0843 86.7387L90.9365 86.8971C91.1049 87.0542 91.1946 87.2764 91.1946 87.5784H91.4112ZM91.0843 86.7387C90.8758 86.5441 90.6319 86.4117 90.3542 86.3423L90.3016 86.5525C90.5439 86.6131 90.755 86.7277 90.9365 86.8971L91.0843 86.7387ZM90.3514 86.3416C90.1098 86.2879 89.6416 86.2289 88.9536 86.164L88.9332 86.3797C89.6232 86.4448 90.078 86.5028 90.3044 86.5531L90.3514 86.3416ZM88.9538 86.1641C88.2793 86.0992 87.7796 86.0219 87.4506 85.9333L87.3942 86.1425C87.7412 86.2359 88.2555 86.3146 88.933 86.3797L88.9538 86.1641ZM87.4543 85.9343C87.128 85.834 86.7929 85.67 86.449 85.4408L86.3288 85.621C86.6869 85.8598 87.0408 86.0338 87.3905 86.1414L87.4543 85.9343ZM86.4475 85.4398C85.7654 85.0013 85.4052 84.1317 85.4052 82.7814H85.1886C85.1886 84.161 85.5564 85.1245 86.3303 85.622L86.4475 85.4398ZM85.4052 82.7814V82.0599H85.1886V82.7814H85.4052ZM85.4052 82.0599C85.4052 81.0518 85.6728 80.2967 86.1925 79.777L86.0393 79.6238C85.467 80.1961 85.1886 81.014 85.1886 82.0599H85.4052ZM86.1925 79.777C86.7261 79.2434 87.4756 78.9702 88.4559 78.9702V78.7536C87.4342 78.7536 86.6237 79.0394 86.0393 79.6238L86.1925 79.777ZM88.4559 78.9702H88.5924V78.7536H88.4559V78.9702ZM88.7007 78.8619V77.3214H88.4841V78.8619H88.7007ZM88.7007 77.3214C88.7007 77.2016 88.7306 77.1316 88.7714 77.0909C88.8121 77.0501 88.8821 77.0202 89.0019 77.0202V76.8036C88.8487 76.8036 88.7139 76.8419 88.6182 76.9377C88.5224 77.0334 88.4841 77.1682 88.4841 77.3214H88.7007ZM89.0019 77.0202H90.1719V76.8036H89.0019V77.0202ZM90.1719 77.0202C90.2917 77.0202 90.3617 77.0501 90.4024 77.0909C90.4432 77.1316 90.4731 77.2016 90.4731 77.3214H90.6897C90.6897 77.1682 90.6514 77.0334 90.5556 76.9377C90.4599 76.8419 90.3251 76.8036 90.1719 76.8036V77.0202ZM90.4731 77.3214V78.8619H90.6897V77.3214H90.4731ZM90.5814 78.9702H90.6204V78.7536H90.5814V78.9702ZM90.6204 78.9702C91.5192 78.9702 92.2163 79.2477 92.7251 79.7937L92.8837 79.646C92.3265 79.0481 91.5676 78.7536 90.6204 78.7536V78.9702ZM92.7251 79.7937C93.2349 80.3408 93.4956 81.0918 93.4956 82.0599H93.7122C93.7122 81.052 93.4399 80.243 92.8837 79.646L92.7251 79.7937ZM93.4956 82.0599V82.4304H93.7122V82.0599H93.4956ZM93.4956 82.4304C93.4956 82.5502 93.4657 82.6201 93.4249 82.6609C93.3842 82.7017 93.3142 82.7316 93.1944 82.7316V82.9482C93.3476 82.9482 93.4824 82.9099 93.5781 82.8141C93.6739 82.7184 93.7122 82.5836 93.7122 82.4304H93.4956ZM93.1944 82.7316H91.5369V82.9482H93.1944V82.7316ZM91.5369 82.7316C91.4171 82.7316 91.3471 82.7017 91.3064 82.6609C91.2656 82.6201 91.2357 82.5502 91.2357 82.4304H91.0191C91.0191 82.5836 91.0574 82.7184 91.1532 82.8141C91.2489 82.9099 91.3837 82.9482 91.5369 82.9482V82.7316ZM91.2357 82.4304V82.2939H91.0191V82.4304H91.2357ZM91.2357 82.2939C91.2357 81.7932 91.1384 81.415 90.9088 81.2007L90.761 81.3591C90.9214 81.5088 91.0191 81.8066 91.0191 82.2939H91.2357ZM90.9115 81.2033C90.802 81.0938 90.6469 81.0185 90.457 80.9702C90.2666 80.9217 90.0343 80.8986 89.7624 80.8986V81.1152C90.0235 81.1152 90.2365 81.1376 90.4036 81.1801C90.5712 81.2228 90.6858 81.284 90.7583 81.3565L90.9115 81.2033ZM89.7624 80.8986H89.1384V81.1152H89.7624V80.8986ZM89.1384 80.8986C88.599 80.8986 88.1947 81.0023 87.9674 81.2448L88.1254 81.393C88.2881 81.2195 88.6118 81.1152 89.1384 81.1152V80.8986ZM87.9672 81.245C87.8584 81.3616 87.784 81.5281 87.7362 81.733C87.6881 81.9389 87.6651 82.1915 87.6651 82.4889H87.8817C87.8817 82.2013 87.9042 81.9664 87.9472 81.7823C87.9903 81.5971 88.0524 81.4712 88.1256 81.3928L87.9672 81.245ZM87.6651 82.4889V82.8789H87.8817V82.4889H87.6651ZM87.6651 82.8789C87.6651 83.1925 87.7735 83.4513 87.995 83.6433L88.1369 83.4795C87.9683 83.3335 87.8817 83.1373 87.8817 82.8789H87.6651ZM87.9982 83.646C88.2066 83.8127 88.4432 83.9239 88.7066 83.9794L88.7512 83.7674C88.5206 83.7188 88.3152 83.6221 88.1336 83.4768L87.9982 83.646ZM88.7095 83.98C89.0004 84.0329 89.4854 84.0917 90.1615 84.1567L90.1823 83.9411C89.5064 83.8761 89.0294 83.8179 88.7483 83.7668L88.7095 83.98ZM90.1637 84.1569C90.8504 84.2087 91.3525 84.2925 91.677 84.4048L91.7478 84.2C91.3963 84.0783 90.8714 83.993 90.1801 83.9409L90.1637 84.1569ZM91.6816 84.4063C92.0203 84.5066 92.3545 84.6702 92.6842 84.8985L92.8076 84.7203C92.4613 84.4806 92.1065 84.3062 91.7432 84.1985L91.6816 84.4063ZM92.6828 84.8974C93.3312 85.3624 93.6711 86.204 93.6711 87.4614H93.8877C93.8877 86.1708 93.5386 85.2444 92.809 84.7213L92.6828 84.8974ZM93.6711 87.4614V88.2024H93.8877V87.4614H93.6711ZM93.6711 88.2024C93.6711 89.1955 93.3916 89.9509 92.8457 90.4844L92.9971 90.6394C93.5952 90.0549 93.8877 89.2373 93.8877 88.2024H93.6711ZM92.8448 90.4853C92.3106 91.0194 91.5738 91.2921 90.6204 91.2921V91.5087C91.617 91.5087 92.4142 91.2223 92.998 90.6385L92.8448 90.4853ZM90.6204 91.2921H90.5814V91.5087H90.6204V91.2921ZM90.4731 91.4004V92.9019H90.6897V91.4004H90.4731ZM90.4731 92.9019C90.4731 93.0217 90.4432 93.0916 90.4024 93.1324C90.3617 93.1732 90.2917 93.2031 90.1719 93.2031V93.4197C90.3251 93.4197 90.4599 93.3814 90.5556 93.2856C90.6514 93.1899 90.6897 93.0551 90.6897 92.9019H90.4731Z" fill="#333333" fill-opacity="0.2"/>
</g>
<circle cx="261" cy="116" r="13.0441" fill="#E4F1FF" stroke="url(#paint15_linear_1203_18449)" stroke-width="1.91176"/>
<circle cx="261" cy="116" r="11.9412" fill="url(#paint16_linear_1203_18449)"/>
<circle cx="261" cy="116" r="11.75" stroke="white" stroke-opacity="0.2" stroke-width="0.382353"/>
<g filter="url(#filter1_d_1203_18449)">
<path d="M261.172 124.311H260.002C259.729 124.311 259.592 124.175 259.592 123.902V122.4H259.456C258.468 122.4 257.694 122.121 257.135 121.562C256.589 120.99 256.316 120.203 256.316 119.202V118.832C256.316 118.559 256.453 118.422 256.726 118.422H258.383C258.656 118.422 258.793 118.559 258.793 118.832V118.968C258.793 119.462 258.89 119.8 259.085 119.982C259.28 120.164 259.638 120.255 260.158 120.255H260.938C261.445 120.255 261.796 120.158 261.991 119.963C262.199 119.768 262.303 119.404 262.303 118.871V118.578C262.303 118.253 262.205 118 262.01 117.818C261.815 117.636 261.588 117.512 261.328 117.447C261.094 117.395 260.632 117.337 259.943 117.272C259.267 117.207 258.76 117.129 258.422 117.038C258.084 116.934 257.74 116.765 257.389 116.531C256.661 116.063 256.297 115.146 256.297 113.781V113.06C256.297 112.033 256.57 111.246 257.116 110.7C257.675 110.141 258.455 109.862 259.456 109.862H259.592V108.321C259.592 108.048 259.729 107.912 260.002 107.912H261.172C261.445 107.912 261.581 108.048 261.581 108.321V109.862H261.62C262.543 109.862 263.271 110.148 263.804 110.72C264.337 111.292 264.604 112.072 264.604 113.06V113.43C264.604 113.703 264.467 113.84 264.194 113.84H262.537C262.264 113.84 262.127 113.703 262.127 113.43V113.294C262.127 112.8 262.03 112.462 261.835 112.28C261.653 112.098 261.295 112.007 260.762 112.007H260.138C259.605 112.007 259.241 112.111 259.046 112.319C258.864 112.514 258.773 112.904 258.773 113.489V113.879C258.773 114.165 258.871 114.392 259.066 114.561C259.261 114.717 259.482 114.821 259.729 114.873C260.015 114.925 260.496 114.984 261.172 115.049C261.861 115.101 262.374 115.185 262.712 115.302C263.063 115.406 263.408 115.575 263.746 115.809C264.435 116.303 264.779 117.187 264.779 118.461V119.202C264.779 120.216 264.493 121.003 263.921 121.562C263.362 122.121 262.595 122.4 261.62 122.4H261.581V123.902C261.581 124.175 261.445 124.311 261.172 124.311Z" fill="url(#paint17_radial_1203_18449)" shape-rendering="crispEdges"/>
<path d="M259.592 122.4H259.701V122.292H259.592V122.4ZM257.135 121.562L257.057 121.637L257.059 121.638L257.135 121.562ZM259.085 119.982L259.011 120.062L259.085 119.982ZM261.991 119.963L261.917 119.884L261.914 119.886L261.991 119.963ZM262.01 117.818L262.084 117.739L262.01 117.818ZM261.328 117.447L261.354 117.342L261.351 117.342L261.328 117.447ZM259.943 117.272L259.933 117.38L259.933 117.38L259.943 117.272ZM258.422 117.038L258.39 117.141L258.394 117.142L258.422 117.038ZM257.389 116.531L257.449 116.441L257.447 116.44L257.389 116.531ZM257.116 110.7L257.039 110.624L257.116 110.7ZM259.592 109.862V109.97H259.701V109.862H259.592ZM261.581 109.862H261.473V109.97H261.581V109.862ZM263.804 110.72L263.884 110.646L263.804 110.72ZM261.835 112.28L261.758 112.357L261.761 112.359L261.835 112.28ZM259.046 112.319L258.967 112.245L258.967 112.245L259.046 112.319ZM259.066 114.561L258.995 114.643L258.998 114.646L259.066 114.561ZM259.729 114.873L259.706 114.979L259.709 114.98L259.729 114.873ZM261.172 115.049L261.161 115.157L261.164 115.157L261.172 115.049ZM262.712 115.302L262.677 115.405L262.682 115.406L262.712 115.302ZM263.746 115.809L263.809 115.721L263.807 115.72L263.746 115.809ZM263.921 121.562L263.846 121.484L263.845 121.485L263.921 121.562ZM261.581 122.4V122.292H261.473V122.4H261.581ZM261.172 124.203H260.002V124.42H261.172V124.203ZM260.002 124.203C259.882 124.203 259.812 124.173 259.771 124.132C259.73 124.092 259.701 124.022 259.701 123.902H259.484C259.484 124.055 259.522 124.19 259.618 124.286C259.714 124.381 259.849 124.42 260.002 124.42V124.203ZM259.701 123.902V122.4H259.484V123.902H259.701ZM259.592 122.292H259.456V122.509H259.592V122.292ZM259.456 122.292C258.489 122.292 257.746 122.019 257.212 121.485L257.059 121.638C257.643 122.223 258.447 122.509 259.456 122.509V122.292ZM257.214 121.487C256.692 120.94 256.425 120.183 256.425 119.202H256.208C256.208 120.224 256.487 121.04 257.057 121.637L257.214 121.487ZM256.425 119.202V118.832H256.208V119.202H256.425ZM256.425 118.832C256.425 118.712 256.454 118.642 256.495 118.601C256.536 118.561 256.606 118.531 256.726 118.531V118.314C256.573 118.314 256.438 118.352 256.342 118.448C256.246 118.544 256.208 118.679 256.208 118.832H256.425ZM256.726 118.531H258.383V118.314H256.726V118.531ZM258.383 118.531C258.503 118.531 258.573 118.561 258.614 118.601C258.655 118.642 258.684 118.712 258.684 118.832H258.901C258.901 118.679 258.863 118.544 258.767 118.448C258.671 118.352 258.536 118.314 258.383 118.314V118.531ZM258.684 118.832V118.968H258.901V118.832H258.684ZM258.684 118.968C258.684 119.469 258.782 119.847 259.011 120.062L259.159 119.903C258.999 119.753 258.901 119.456 258.901 118.968H258.684ZM259.011 120.062C259.238 120.274 259.633 120.364 260.158 120.364V120.147C259.643 120.147 259.322 120.055 259.159 119.903L259.011 120.062ZM260.158 120.364H260.938V120.147H260.158V120.364ZM260.938 120.364C261.452 120.364 261.841 120.266 262.067 120.039L261.914 119.886C261.751 120.05 261.438 120.147 260.938 120.147V120.364ZM262.065 120.042C262.307 119.815 262.411 119.41 262.411 118.871H262.194C262.194 119.398 262.09 119.721 261.917 119.884L262.065 120.042ZM262.411 118.871V118.578H262.194V118.871H262.411ZM262.411 118.578C262.411 118.23 262.306 117.946 262.084 117.739L261.936 117.897C262.105 118.054 262.194 118.276 262.194 118.578H262.411ZM262.084 117.739C261.876 117.544 261.632 117.412 261.354 117.342L261.302 117.552C261.544 117.613 261.755 117.728 261.936 117.897L262.084 117.739ZM261.351 117.342C261.11 117.288 260.642 117.229 259.953 117.164L259.933 117.38C260.623 117.445 261.078 117.503 261.304 117.553L261.351 117.342ZM259.954 117.164C259.279 117.099 258.779 117.022 258.45 116.933L258.394 117.142C258.741 117.236 259.255 117.315 259.933 117.38L259.954 117.164ZM258.454 116.934C258.128 116.834 257.793 116.67 257.449 116.441L257.329 116.621C257.687 116.86 258.041 117.034 258.39 117.141L258.454 116.934ZM257.447 116.44C256.765 116.001 256.405 115.132 256.405 113.781H256.188C256.188 115.161 256.556 116.124 257.33 116.622L257.447 116.44ZM256.405 113.781V113.06H256.188V113.781H256.405ZM256.405 113.06C256.405 112.052 256.673 111.297 257.192 110.777L257.039 110.624C256.467 111.196 256.188 112.014 256.188 113.06H256.405ZM257.192 110.777C257.726 110.243 258.475 109.97 259.456 109.97V109.754C258.434 109.754 257.624 110.039 257.039 110.624L257.192 110.777ZM259.456 109.97H259.592V109.754H259.456V109.97ZM259.701 109.862V108.321H259.484V109.862H259.701ZM259.701 108.321C259.701 108.202 259.73 108.132 259.771 108.091C259.812 108.05 259.882 108.02 260.002 108.02V107.804C259.849 107.804 259.714 107.842 259.618 107.938C259.522 108.033 259.484 108.168 259.484 108.321H259.701ZM260.002 108.02H261.172V107.804H260.002V108.02ZM261.172 108.02C261.292 108.02 261.362 108.05 261.402 108.091C261.443 108.132 261.473 108.202 261.473 108.321H261.69C261.69 108.168 261.651 108.033 261.556 107.938C261.46 107.842 261.325 107.804 261.172 107.804V108.02ZM261.473 108.321V109.862H261.69V108.321H261.473ZM261.581 109.97H261.62V109.754H261.581V109.97ZM261.62 109.97C262.519 109.97 263.216 110.248 263.725 110.794L263.884 110.646C263.326 110.048 262.567 109.754 261.62 109.754V109.97ZM263.725 110.794C264.235 111.341 264.495 112.092 264.495 113.06H264.712C264.712 112.052 264.44 111.243 263.884 110.646L263.725 110.794ZM264.495 113.06V113.43H264.712V113.06H264.495ZM264.495 113.43C264.495 113.55 264.466 113.62 264.425 113.661C264.384 113.702 264.314 113.732 264.194 113.732V113.948C264.347 113.948 264.482 113.91 264.578 113.814C264.674 113.718 264.712 113.584 264.712 113.43H264.495ZM264.194 113.732H262.537V113.948H264.194V113.732ZM262.537 113.732C262.417 113.732 262.347 113.702 262.306 113.661C262.265 113.62 262.236 113.55 262.236 113.43H262.019C262.019 113.584 262.057 113.718 262.153 113.814C262.249 113.91 262.384 113.948 262.537 113.948V113.732ZM262.236 113.43V113.294H262.019V113.43H262.236ZM262.236 113.294C262.236 112.793 262.138 112.415 261.909 112.201L261.761 112.359C261.921 112.509 262.019 112.807 262.019 113.294H262.236ZM261.911 112.203C261.802 112.094 261.647 112.018 261.457 111.97C261.266 111.922 261.034 111.899 260.762 111.899V112.115C261.023 112.115 261.236 112.138 261.403 112.18C261.571 112.223 261.686 112.284 261.758 112.356L261.911 112.203ZM260.762 111.899H260.138V112.115H260.762V111.899ZM260.138 111.899C259.599 111.899 259.195 112.002 258.967 112.245L259.125 112.393C259.288 112.22 259.612 112.115 260.138 112.115V111.899ZM258.967 112.245C258.858 112.362 258.784 112.528 258.736 112.733C258.688 112.939 258.665 113.192 258.665 113.489H258.882C258.882 113.201 258.904 112.966 258.947 112.782C258.99 112.597 259.052 112.471 259.125 112.393L258.967 112.245ZM258.665 113.489V113.879H258.882V113.489H258.665ZM258.665 113.879C258.665 114.192 258.773 114.451 258.995 114.643L259.137 114.48C258.968 114.333 258.882 114.137 258.882 113.879H258.665ZM258.998 114.646C259.206 114.813 259.443 114.924 259.706 114.979L259.751 114.767C259.52 114.719 259.315 114.622 259.133 114.477L258.998 114.646ZM259.709 114.98C260 115.033 260.485 115.092 261.161 115.157L261.182 114.941C260.506 114.876 260.029 114.818 259.748 114.767L259.709 114.98ZM261.164 115.157C261.85 115.209 262.352 115.292 262.677 115.405L262.748 115.2C262.396 115.078 261.871 114.993 261.18 114.941L261.164 115.157ZM262.682 115.406C263.02 115.507 263.354 115.67 263.684 115.898L263.807 115.72C263.461 115.481 263.106 115.306 262.743 115.199L262.682 115.406ZM263.683 115.897C264.331 116.362 264.671 117.204 264.671 118.461H264.888C264.888 117.171 264.538 116.244 263.809 115.721L263.683 115.897ZM264.671 118.461V119.202H264.888V118.461H264.671ZM264.671 119.202C264.671 120.195 264.391 120.951 263.846 121.484L263.997 121.639C264.595 121.055 264.888 120.237 264.888 119.202H264.671ZM263.845 121.485C263.311 122.019 262.574 122.292 261.62 122.292V122.509C262.617 122.509 263.414 122.222 263.998 121.638L263.845 121.485ZM261.62 122.292H261.581V122.509H261.62V122.292ZM261.473 122.4V123.902H261.69V122.4H261.473ZM261.473 123.902C261.473 124.022 261.443 124.092 261.402 124.132C261.362 124.173 261.292 124.203 261.172 124.203V124.42C261.325 124.42 261.46 124.381 261.556 124.286C261.651 124.19 261.69 124.055 261.69 123.902H261.473Z" fill="#333333" fill-opacity="0.2"/>
</g>
<defs>
<filter id="filter0_d_1203_18449" x="84.5322" y="76.9121" width="10.0118" height="17.9278" filterUnits="userSpaceOnUse" color-interpolation-filters="sRGB">
<feFlood flood-opacity="0" result="BackgroundImageFix"/>
<feColorMatrix in="SourceAlpha" type="matrix" values="0 0 0 0 0 0 0 0 0 0 0 0 0 0 0 0 0 0 127 0" result="hardAlpha"/>
<feOffset dy="0.764706"/>
<feGaussianBlur stdDeviation="0.382353"/>
<feComposite in2="hardAlpha" operator="out"/>
<feColorMatrix type="matrix" values="0 0 0 0 0 0 0 0 0 0 0 0 0 0 0 0 0 0 0.25 0"/>
<feBlend mode="normal" in2="BackgroundImageFix" result="effect1_dropShadow_1203_18449"/>
<feBlend mode="normal" in="SourceGraphic" in2="effect1_dropShadow_1203_18449" result="shape"/>
</filter>
<filter id="filter1_d_1203_18449" x="255.532" y="107.912" width="10.012" height="17.9278" filterUnits="userSpaceOnUse" color-interpolation-filters="sRGB">
<feFlood flood-opacity="0" result="BackgroundImageFix"/>
<feColorMatrix in="SourceAlpha" type="matrix" values="0 0 0 0 0 0 0 0 0 0 0 0 0 0 0 0 0 0 127 0" result="hardAlpha"/>
<feOffset dy="0.764706"/>
<feGaussianBlur stdDeviation="0.382353"/>
<feComposite in2="hardAlpha" operator="out"/>
<feColorMatrix type="matrix" values="0 0 0 0 0 0 0 0 0 0 0 0 0 0 0 0 0 0 0.25 0"/>
<feBlend mode="normal" in2="BackgroundImageFix" result="effect1_dropShadow_1203_18449"/>
<feBlend mode="normal" in="SourceGraphic" in2="effect1_dropShadow_1203_18449" result="shape"/>
</filter>
<linearGradient id="paint0_linear_1203_18449" x1="257.179" y1="159.533" x2="257.179" y2="165.679" gradientUnits="userSpaceOnUse">
<stop stop-color="#F89B32"/>
<stop offset="1" stop-color="#FDBF21"/>
</linearGradient>
<linearGradient id="paint1_linear_1203_18449" x1="253.569" y1="153.387" x2="253.569" y2="159.533" gradientUnits="userSpaceOnUse">
<stop stop-color="#F89B32"/>
<stop offset="1" stop-color="#FDBF21"/>
</linearGradient>
<linearGradient id="paint2_linear_1203_18449" x1="257.179" y1="147.24" x2="257.179" y2="153.386" gradientUnits="userSpaceOnUse">
<stop stop-color="#F89B32"/>
<stop offset="1" stop-color="#FDBF21"/>
</linearGradient>
<linearGradient id="paint3_linear_1203_18449" x1="255.374" y1="141.207" x2="255.374" y2="147.353" gradientUnits="userSpaceOnUse">
<stop stop-color="#F89B32"/>
<stop offset="1" stop-color="#FDBF21"/>
</linearGradient>
<linearGradient id="paint4_linear_1203_18449" x1="251.764" y1="135.061" x2="251.764" y2="141.207" gradientUnits="userSpaceOnUse">
<stop stop-color="#F89B32"/>
<stop offset="1" stop-color="#FDBF21"/>
</linearGradient>
<linearGradient id="paint5_linear_1203_18449" x1="255.374" y1="128.914" x2="255.374" y2="135.06" gradientUnits="userSpaceOnUse">
<stop stop-color="#F89B32"/>
<stop offset="1" stop-color="#FDBF21"/>
</linearGradient>
<linearGradient id="paint6_linear_1203_18449" x1="124.011" y1="71.3489" x2="136.242" y2="79.8349" gradientUnits="userSpaceOnUse">
<stop stop-color="#1EFF00"/>
<stop offset="1" stop-color="#007608"/>
</linearGradient>
<linearGradient id="paint7_linear_1203_18449" x1="125.925" y1="70.0635" x2="148.262" y2="89.8595" gradientUnits="userSpaceOnUse">
<stop stop-color="#1EFF00"/>
<stop offset="1" stop-color="#007608"/>
</linearGradient>
<linearGradient id="paint8_linear_1203_18449" x1="195.524" y1="72.8867" x2="195.524" y2="114.932" gradientUnits="userSpaceOnUse">
<stop stop-color="#F89B32"/>
<stop offset="1" stop-color="#FDBF21"/>
</linearGradient>
<linearGradient id="paint9_linear_1203_18449" x1="75.427" y1="68.6992" x2="75.427" y2="86.4011" gradientUnits="userSpaceOnUse">
<stop stop-color="#FFD500"/>
<stop offset="1" stop-color="#FF2800"/>
</linearGradient>
<linearGradient id="paint10_linear_1203_18449" x1="58.6189" y1="67.5137" x2="58.6189" y2="96.8323" gradientUnits="userSpaceOnUse">
<stop stop-color="#FFD500"/>
<stop offset="1" stop-color="#FF2800"/>
</linearGradient>
<linearGradient id="paint11_linear_1203_18449" x1="60.4911" y1="70.8984" x2="60.4911" y2="88.9007" gradientUnits="userSpaceOnUse">
<stop stop-color="#FFD500"/>
<stop offset="1" stop-color="#FF2800"/>
</linearGradient>
<linearGradient id="paint12_linear_1203_18449" x1="90" y1="71" x2="90" y2="99" gradientUnits="userSpaceOnUse">
<stop stop-color="#F89B32"/>
<stop offset="1" stop-color="#FDBF21"/>
</linearGradient>
<linearGradient id="paint13_linear_1203_18449" x1="83.9267" y1="75.0145" x2="94.6326" y2="95.9115" gradientUnits="userSpaceOnUse">
<stop stop-color="#FCB824"/>
<stop offset="1" stop-color="#FA7D04"/>
</linearGradient>
<radialGradient id="paint14_radial_1203_18449" cx="0" cy="0" r="1" gradientUnits="userSpaceOnUse" gradientTransform="translate(85.1428 78.3893) rotate(48.6326) scale(14.8718 20.6765)">
<stop stop-color="#FEF83D"/>
<stop offset="1" stop-color="#FDBF21"/>
</radialGradient>
<linearGradient id="paint15_linear_1203_18449" x1="261" y1="102" x2="261" y2="130" gradientUnits="userSpaceOnUse">
<stop stop-color="#F89B32"/>
<stop offset="1" stop-color="#FDBF21"/>
</linearGradient>
<linearGradient id="paint16_linear_1203_18449" x1="254.927" y1="106.014" x2="265.633" y2="126.912" gradientUnits="userSpaceOnUse">
<stop stop-color="#FCB824"/>
<stop offset="1" stop-color="#FA7D04"/>
</linearGradient>
<radialGradient id="paint17_radial_1203_18449" cx="0" cy="0" r="1" gradientUnits="userSpaceOnUse" gradientTransform="translate(256.143 109.389) rotate(48.6326) scale(14.8718 20.6765)">
<stop stop-color="#FEF83D"/>
<stop offset="1" stop-color="#FDBF21"/>
</radialGradient>
</defs>
</svg>
