<svg width="28" height="28" viewBox="0 0 28 28" fill="none" xmlns="http://www.w3.org/2000/svg">
<circle cx="13.683" cy="13.5433" r="13.5433" fill="#4065F6"/>
<path d="M15.0814 22.4742C14.1533 22.4742 13.4441 22.2028 12.9538 21.66C12.4635 21.0996 12.2184 20.3817 12.2184 19.5062V9.28874H15.2127V19.2435C15.2127 19.6462 15.274 19.9177 15.3966 20.0577C15.5191 20.1978 15.703 20.2679 15.9481 20.2679C16.0182 20.2679 16.0882 20.2679 16.1583 20.2679C16.2458 20.2679 16.3246 20.2591 16.3947 20.2416C16.4647 20.2416 16.5435 20.2329 16.6311 20.2153L16.9463 22.1065C16.8237 22.1765 16.6661 22.2378 16.4735 22.2903C16.3159 22.3429 16.1145 22.3867 15.8694 22.4217C15.6417 22.4567 15.3791 22.4742 15.0814 22.4742ZM13.7681 3.45772C14.3284 3.45772 14.7574 3.62407 15.0551 3.95677C15.3528 4.28947 15.5016 4.71848 15.5016 5.2438C15.5016 5.76912 15.344 6.20688 15.0288 6.55709C14.7312 6.9073 14.2846 7.08241 13.6893 7.08241C13.1289 7.08241 12.6912 6.91606 12.376 6.58336C12.0783 6.23315 11.9295 5.81289 11.9295 5.3226C11.9295 4.77977 12.0783 4.33325 12.376 3.98304C12.6912 3.63283 13.1552 3.45772 13.7681 3.45772Z" fill="white"/>
</svg>
