<svg width="30" height="30" viewBox="0 0 30 30" fill="none" xmlns="http://www.w3.org/2000/svg">
<circle cx="15" cy="15" r="15" fill="#ECEDF1"/>
<path d="M17.371 12.6287C19.1214 14.3809 19.0974 17.1901 17.3816 18.9155C17.3784 18.919 17.3746 18.9228 17.371 18.9263L15.4023 20.8951C13.6659 22.6315 10.8408 22.6313 9.10464 20.8951C7.36821 19.1589 7.36821 16.3336 9.10464 14.5974L10.1917 13.5103C10.48 13.2221 10.9765 13.4137 10.9914 13.8211C11.0103 14.3403 11.1034 14.8619 11.2752 15.3656C11.3334 15.5362 11.2919 15.7249 11.1644 15.8523L10.781 16.2357C9.95993 17.0568 9.93418 18.3937 10.7472 19.2228C11.5682 20.0601 13.1727 20.3268 14 19.4995L16.1668 17.4995C16.9927 16.6736 16.5362 15.1084 15.7137 14.286C15.6053 14.1778 15.4961 14.0937 15.4108 14.035C15.3504 13.9935 15.3006 13.9385 15.2652 13.8744C15.2299 13.8103 15.21 13.7388 15.2072 13.6656C15.1956 13.3561 15.3053 13.037 15.55 12.7924L16.1668 12.1756C16.3285 12.0138 16.5823 11.994 16.7698 12.1249C16.9846 12.2748 17.1858 12.4434 17.371 12.6287ZM21.5 8.49951C19.7638 6.76332 16.9388 6.76309 15.2023 8.49951L13.2336 10.4683C13.2301 10.4718 13.2263 10.4756 13.223 10.4791C11.5072 12.2045 11.4832 15.0137 13.2336 16.7659C13.4188 16.9512 13.62 17.1197 13.8348 17.2697C14.0224 17.4006 14.2761 17.3807 14.4378 17.219L15.0547 16.6022C15.2993 16.3575 15.409 16.0385 15.3974 15.7289C15.3946 15.6558 15.3747 15.5843 15.3394 15.5202C15.304 15.456 15.2542 15.4011 15.1938 15.3596C15.1085 15.3009 14.9993 15.2168 14.8909 15.1086C14.0684 14.2861 13.6119 12.5232 14.4378 11.6973L16.3023 9.69728C17.1296 8.86997 19.0364 9.33447 19.8574 10.1717C20.6704 11.0009 20.6447 12.3378 19.8236 13.1589L19.4402 13.5423C19.3128 13.6697 19.2712 13.8584 19.3294 14.0289C19.5012 14.5327 19.5943 15.0543 19.6133 15.5735C19.6282 15.9809 20.1246 16.1725 20.4129 15.8842L21.5 14.7971C23.2364 13.061 23.2364 10.2356 21.5 8.49951Z" fill="#686E7F"/>
</svg>
