<svg width="44" height="21" viewBox="0 0 44 21" fill="none" xmlns="http://www.w3.org/2000/svg">
<path fill-rule="evenodd" clip-rule="evenodd" d="M22.5204 1.00476C18.9996 1.11297 15.5 3.5 17.5 6.169L18 6.98772L18.5 9.5V15L29.2013 19.517L29.2827 19.4828C29.9678 19.1944 30.4455 18.8796 30.8074 18.4323C31.1662 17.9888 31.3965 17.4324 31.6198 16.6911L31.6289 16.6609V14.0981C31.9275 12.4821 32.0495 11.2787 31.9818 10.1908C31.9137 9.09615 31.6543 8.12992 31.2054 6.98772C29.6328 2.64035 26.0561 0.89609 22.5204 1.00476ZM30.8636 7.27494C31.2702 8.33221 31.4985 9.22147 31.5604 10.2174C31.6252 11.2584 31.509 12.4273 31.2103 14.0394L31.2067 14.0588V14.0603C29.61 13.9247 28.4136 13.7357 27.3776 13.4045C26.3267 13.0684 25.4328 12.5834 24.4516 11.8464V10.4557L21.9863 8.83659C21.7495 8.17926 21.7661 7.62722 21.9555 7.22372C22.1417 6.82724 22.5105 6.54015 23.054 6.43354C24.9552 7.25726 26.7732 7.26238 29.825 7.27097C30.1561 7.2719 30.5018 7.27287 30.8636 7.27494ZM31.2067 14.487C29.5804 14.3502 28.3375 14.1575 27.2498 13.8097C26.1152 13.4469 25.1583 12.9182 24.1131 12.1222L24.0294 12.0584V10.686L21.6403 9.11693L21.6158 9.05267C21.3264 8.2939 21.3151 7.59311 21.5738 7.04198C21.8352 6.48532 22.3547 6.11903 23.0447 6.00321L23.1067 5.99281L23.1642 6.01823C25.0021 6.83021 26.731 6.83571 29.8404 6.84559C30.1162 6.84646 30.4028 6.84737 30.7013 6.84889C29.1497 2.90568 25.8344 1.32827 22.5333 1.42973C19.1564 1.53352 16.5 3.5 18 6.43354L18.5 9.5V14.487L29.2005 19.056C29.8023 18.7939 30.1902 18.522 30.48 18.1638C30.7814 17.7913 30.991 17.3081 31.2067 16.5977V14.487Z" fill="#686E7F"/>
<path d="M18.5 9.5L18 6.43354C16.5 3.5 19.1564 1.53352 22.5333 1.42973C25.8344 1.32827 29.1497 2.90568 30.7013 6.84889C30.4028 6.84737 30.1162 6.84646 29.8404 6.84559C26.731 6.83571 25.0021 6.83021 23.1642 6.01823L23.1067 5.99281L23.0447 6.00321C22.3547 6.11903 21.8352 6.48532 21.5738 7.04198C21.3151 7.59311 21.3264 8.2939 21.6158 9.05267L21.6403 9.11693L24.0294 10.686V12.0584L24.1131 12.1222C25.1583 12.9182 26.1152 13.4469 27.2498 13.8097C28.3375 14.1575 29.5804 14.3502 31.2067 14.487V16.5977C30.991 17.3081 30.7814 17.7913 30.48 18.1638C30.1902 18.522 29.8023 18.7939 29.2005 19.056L18.5 14.487V9.5ZM18.5 9.5V15L29.2013 19.517L29.2827 19.4828C29.9678 19.1944 30.4455 18.8796 30.8074 18.4323C31.1662 17.9888 31.3965 17.4324 31.6198 16.6911L31.6289 16.6609V14.0981C31.9275 12.4821 32.0495 11.2787 31.9818 10.1908C31.9137 9.09615 31.6543 8.12992 31.2054 6.98772C29.6328 2.64035 26.0561 0.89609 22.5204 1.00476C18.9996 1.11297 15.5 3.5 17.5 6.169L18 6.98772L18.5 9.5ZM31.5604 10.2174C31.4985 9.22147 31.2702 8.33221 30.8636 7.27494C30.5018 7.27287 30.1561 7.2719 29.825 7.27097C26.7732 7.26238 24.9552 7.25726 23.054 6.43354C22.5105 6.54015 22.1417 6.82724 21.9555 7.22372C21.7661 7.62722 21.7495 8.17926 21.9863 8.83659L24.4516 10.4557V11.8464C25.4328 12.5834 26.3267 13.0684 27.3776 13.4045C28.4136 13.7357 29.61 13.9247 31.2067 14.0603V14.0588L31.2103 14.0394C31.509 12.4273 31.6252 11.2584 31.5604 10.2174Z" stroke="#686E7F" stroke-width="1.2"/>
<path d="M21.9908 13.2287C21.9908 13.1948 21.9624 13.1602 21.9185 13.1602C21.8747 13.1602 21.8463 13.1948 21.8463 13.2287C21.8463 13.2626 21.8747 13.2973 21.9185 13.2973C21.9624 13.2973 21.9908 13.2626 21.9908 13.2287Z" fill="white" fill-opacity="0.01" stroke="#686E7F" stroke-width="1.2"/>
<path d="M22.8894 7.9081C22.8894 7.99162 22.9555 8.05213 23.0282 8.05213C23.101 8.05213 23.1671 7.99162 23.1671 7.9081C23.1671 7.82458 23.101 7.76406 23.0282 7.76406C22.9555 7.76406 22.8894 7.82458 22.8894 7.9081Z" fill="white" fill-opacity="0.01" stroke="#686E7F" stroke-width="1.2"/>
<mask id="path-5-inside-1_1213_12366" fill="white">
<path fill-rule="evenodd" clip-rule="evenodd" d="M23.0282 8.43955C22.7368 8.43955 22.5005 8.20161 22.5005 7.9081C22.5005 7.61458 22.7368 7.37664 23.0282 7.37664C23.3197 7.37664 23.556 7.61458 23.556 7.9081C23.556 8.20161 23.3197 8.43955 23.0282 8.43955ZM23.0282 8.65213C22.6202 8.65213 22.2894 8.31902 22.2894 7.9081C22.2894 7.49718 22.6202 7.16406 23.0282 7.16406C23.4363 7.16406 23.7671 7.49718 23.7671 7.9081C23.7671 8.31902 23.4363 8.65213 23.0282 8.65213Z"/>
</mask>
<path fill-rule="evenodd" clip-rule="evenodd" d="M23.0282 8.43955C22.7368 8.43955 22.5005 8.20161 22.5005 7.9081C22.5005 7.61458 22.7368 7.37664 23.0282 7.37664C23.3197 7.37664 23.556 7.61458 23.556 7.9081C23.556 8.20161 23.3197 8.43955 23.0282 8.43955ZM23.0282 8.65213C22.6202 8.65213 22.2894 8.31902 22.2894 7.9081C22.2894 7.49718 22.6202 7.16406 23.0282 7.16406C23.4363 7.16406 23.7671 7.49718 23.7671 7.9081C23.7671 8.31902 23.4363 8.65213 23.0282 8.65213Z" fill="#686E7F"/>
<path d="M23.7005 7.9081C23.7005 7.54681 23.4074 7.23955 23.0282 7.23955V9.63955C22.0661 9.63955 21.3005 8.85641 21.3005 7.9081H23.7005ZM23.0282 8.57664C23.4074 8.57664 23.7005 8.26939 23.7005 7.9081H21.3005C21.3005 6.95978 22.0661 6.17664 23.0282 6.17664V8.57664ZM22.356 7.9081C22.356 8.26939 22.6491 8.57664 23.0282 8.57664V6.17664C23.9904 6.17664 24.756 6.95978 24.756 7.9081H22.356ZM23.0282 7.23955C22.6491 7.23955 22.356 7.54681 22.356 7.9081H24.756C24.756 8.85641 23.9904 9.63955 23.0282 9.63955V7.23955ZM23.4894 7.9081C23.4894 7.66421 23.2909 7.45213 23.0282 7.45213V9.85213C21.9495 9.85213 21.0894 8.97382 21.0894 7.9081H23.4894ZM23.0282 8.36406C23.2909 8.36406 23.4894 8.15198 23.4894 7.9081H21.0894C21.0894 6.84238 21.9495 5.96406 23.0282 5.96406V8.36406ZM22.5671 7.9081C22.5671 8.15198 22.7656 8.36406 23.0282 8.36406V5.96406C24.107 5.96406 24.9671 6.84238 24.9671 7.9081H22.5671ZM23.0282 7.45213C22.7656 7.45213 22.5671 7.66421 22.5671 7.9081H24.9671C24.9671 8.97382 24.107 9.85213 23.0282 9.85213V7.45213Z" fill="#686E7F" mask="url(#path-5-inside-1_1213_12366)"/>
<path d="M21.4118 12.7974C21.4118 12.6461 21.2889 12.5163 21.1284 12.5163C20.968 12.5163 20.8451 12.6461 20.8451 12.7974C20.8451 12.9487 20.968 13.0785 21.1284 13.0785C21.2889 13.0785 21.4118 12.9487 21.4118 12.7974Z" fill="#C4C4C4" fill-opacity="0.01" stroke="#686E7F" stroke-width="1.2"/>
<path d="M21.4118 12.7974C21.4118 12.6461 21.2889 12.5163 21.1284 12.5163C20.968 12.5163 20.8451 12.6461 20.8451 12.7974C20.8451 12.9487 20.968 13.0785 21.1284 13.0785C21.2889 13.0785 21.4118 12.9487 21.4118 12.7974ZM21.1284 13.01C21.0118 13.01 20.9173 12.9148 20.9173 12.7974C20.9173 12.68 21.0118 12.5848 21.1284 12.5848C21.245 12.5848 21.3395 12.68 21.3395 12.7974C21.3395 12.9148 21.245 13.01 21.1284 13.01Z" fill="#686E7F" stroke="#686E7F" stroke-width="1.2"/>
<path fill-rule="evenodd" clip-rule="evenodd" d="M9.52041 1.00476C5.99961 1.11297 2.48878 3.05945 1.02318 6.12058L1 6.169L1.32527 13.2661L16.2013 19.517L16.2827 19.4828C16.9678 19.1944 17.4455 18.8796 17.8074 18.4323C18.1662 17.9888 18.3965 17.4324 18.6198 16.6911L18.6289 16.6609V14.0981C18.9275 12.4821 19.0495 11.2787 18.9818 10.1908C18.9137 9.09615 18.6543 8.12992 18.2054 6.98772C16.6328 2.64035 13.0561 0.89609 9.52041 1.00476ZM17.8636 7.27494C18.2702 8.33221 18.4985 9.22147 18.5604 10.2174C18.6252 11.2584 18.509 12.4273 18.2103 14.0394L18.2067 14.0588V14.0603C16.61 13.9247 15.4136 13.7357 14.3776 13.4045C13.3267 13.0684 12.4328 12.5834 11.4516 11.8464V10.4557L8.9863 8.83659C8.74946 8.17926 8.76605 7.62722 8.95551 7.22372C9.14166 6.82724 9.51047 6.54015 10.054 6.43354C11.9552 7.25726 13.7732 7.26238 16.825 7.27097C17.1561 7.2719 17.5018 7.27287 17.8636 7.27494ZM18.2067 14.487C16.5804 14.3502 15.3375 14.1575 14.2498 13.8097C13.1152 13.4469 12.1583 12.9182 11.1131 12.1222L11.0294 12.0584V10.686L8.64028 9.11693L8.61578 9.05267C8.32645 8.2939 8.31506 7.59311 8.57383 7.04198C8.83519 6.48532 9.35466 6.11903 10.0447 6.00321L10.1067 5.99281L10.1642 6.01823C12.0021 6.83021 13.731 6.83571 16.8404 6.84559C17.1162 6.84646 17.4028 6.84737 17.7013 6.84889C16.1497 2.90568 12.8344 1.32827 9.53329 1.42973C6.15637 1.53352 2.82484 3.39329 1.42669 6.25723L1.73469 12.9775L16.2005 19.056C16.8023 18.7939 17.1902 18.522 17.48 18.1638C17.7814 17.7913 17.991 17.3081 18.2067 16.5977V14.487Z" fill="#686E7F" stroke="#686E7F" stroke-width="1.2"/>
<path d="M8.9908 13.2287C8.9908 13.1948 8.96241 13.1602 8.91855 13.1602C8.87468 13.1602 8.84629 13.1948 8.84629 13.2287C8.84629 13.2626 8.87468 13.2973 8.91855 13.2973C8.96241 13.2973 8.9908 13.2626 8.9908 13.2287Z" fill="white" fill-opacity="0.01" stroke="#686E7F" stroke-width="1.2"/>
<path d="M9.88941 7.9081C9.88941 7.99162 9.95552 8.05213 10.0282 8.05213C10.101 8.05213 10.1671 7.99162 10.1671 7.9081C10.1671 7.82458 10.101 7.76406 10.0282 7.76406C9.95552 7.76406 9.88941 7.82458 9.88941 7.9081Z" fill="white" fill-opacity="0.01" stroke="#686E7F" stroke-width="1.2"/>
<mask id="path-12-inside-2_1213_12366" fill="white">
<path fill-rule="evenodd" clip-rule="evenodd" d="M10.0282 8.43955C9.73678 8.43955 9.5005 8.20161 9.5005 7.9081C9.5005 7.61458 9.73678 7.37664 10.0282 7.37664C10.3197 7.37664 10.556 7.61458 10.556 7.9081C10.556 8.20161 10.3197 8.43955 10.0282 8.43955ZM10.0282 8.65213C9.6202 8.65213 9.28941 8.31902 9.28941 7.9081C9.28941 7.49718 9.6202 7.16406 10.0282 7.16406C10.4363 7.16406 10.7671 7.49718 10.7671 7.9081C10.7671 8.31902 10.4363 8.65213 10.0282 8.65213Z"/>
</mask>
<path fill-rule="evenodd" clip-rule="evenodd" d="M10.0282 8.43955C9.73678 8.43955 9.5005 8.20161 9.5005 7.9081C9.5005 7.61458 9.73678 7.37664 10.0282 7.37664C10.3197 7.37664 10.556 7.61458 10.556 7.9081C10.556 8.20161 10.3197 8.43955 10.0282 8.43955ZM10.0282 8.65213C9.6202 8.65213 9.28941 8.31902 9.28941 7.9081C9.28941 7.49718 9.6202 7.16406 10.0282 7.16406C10.4363 7.16406 10.7671 7.49718 10.7671 7.9081C10.7671 8.31902 10.4363 8.65213 10.0282 8.65213Z" fill="#686E7F"/>
<path d="M10.7005 7.9081C10.7005 7.54681 10.4074 7.23955 10.0282 7.23955V9.63955C9.06613 9.63955 8.3005 8.85641 8.3005 7.9081H10.7005ZM10.0282 8.57664C10.4074 8.57664 10.7005 8.26939 10.7005 7.9081H8.3005C8.3005 6.95978 9.06613 6.17664 10.0282 6.17664V8.57664ZM9.35599 7.9081C9.35599 8.26939 9.64906 8.57664 10.0282 8.57664V6.17664C10.9904 6.17664 11.756 6.95978 11.756 7.9081H9.35599ZM10.0282 7.23955C9.64906 7.23955 9.35599 7.54681 9.35599 7.9081H11.756C11.756 8.85641 10.9904 9.63955 10.0282 9.63955V7.23955ZM10.4894 7.9081C10.4894 7.66421 10.2909 7.45213 10.0282 7.45213V9.85213C8.94954 9.85213 8.08941 8.97382 8.08941 7.9081H10.4894ZM10.0282 8.36406C10.2909 8.36406 10.4894 8.15198 10.4894 7.9081H8.08941C8.08941 6.84238 8.94954 5.96406 10.0282 5.96406V8.36406ZM9.56709 7.9081C9.56709 8.15198 9.76565 8.36406 10.0282 8.36406V5.96406C11.107 5.96406 11.9671 6.84238 11.9671 7.9081H9.56709ZM10.0282 7.45213C9.76565 7.45213 9.56709 7.66421 9.56709 7.9081H11.9671C11.9671 8.97382 11.107 9.85213 10.0282 9.85213V7.45213Z" fill="#686E7F" mask="url(#path-12-inside-2_1213_12366)"/>
<path d="M8.41178 12.7974C8.41178 12.6461 8.28887 12.5163 8.12842 12.5163C7.96797 12.5163 7.84507 12.6461 7.84507 12.7974C7.84507 12.9487 7.96797 13.0785 8.12842 13.0785C8.28887 13.0785 8.41178 12.9487 8.41178 12.7974Z" fill="#C4C4C4" fill-opacity="0.01" stroke="#686E7F" stroke-width="1.2"/>
<path d="M8.41178 12.7974C8.41178 12.6461 8.28887 12.5163 8.12842 12.5163C7.96797 12.5163 7.84507 12.6461 7.84507 12.7974C7.84507 12.9487 7.96797 13.0785 8.12842 13.0785C8.28887 13.0785 8.41178 12.9487 8.41178 12.7974ZM8.12842 13.01C8.01184 13.01 7.91732 12.9148 7.91732 12.7974C7.91732 12.68 8.01184 12.5848 8.12842 12.5848C8.24501 12.5848 8.33952 12.68 8.33952 12.7974C8.33952 12.9148 8.24501 13.01 8.12842 13.01Z" fill="#686E7F" stroke="#686E7F" stroke-width="1.2"/>
<circle cx="36.5" cy="8.5" r="7.5" fill="#FF0000"/>
<path d="M34.9634 8.05L34.9434 8.03C34.81 8.10333 34.6534 8.15667 34.4734 8.19C34.3 8.22333 34.14 8.24 33.9934 8.24C33.6867 8.24 33.4 8.18667 33.1334 8.08C32.8734 7.97333 32.6467 7.82333 32.4534 7.63C32.2667 7.43 32.12 7.19667 32.0134 6.93C31.9067 6.65667 31.8534 6.35333 31.8534 6.02C31.8534 5.67333 31.9134 5.36333 32.0334 5.09C32.1534 4.81667 32.32 4.58667 32.5334 4.4C32.7467 4.20667 32.9967 4.06 33.2834 3.96C33.5767 3.85333 33.89 3.8 34.2234 3.8C34.5567 3.8 34.8667 3.85333 35.1534 3.96C35.4467 4.06 35.7 4.20667 35.9134 4.4C36.1267 4.58667 36.2934 4.81667 36.4134 5.09C36.5334 5.36333 36.5934 5.67333 36.5934 6.02C36.5934 6.22667 36.5767 6.41667 36.5434 6.59C36.51 6.76333 36.4634 6.93 36.4034 7.09C36.3434 7.25 36.27 7.40667 36.1834 7.56C36.1034 7.70667 36.0167 7.85667 35.9234 8.01L34.0434 11H33.0634L34.9634 8.05ZM34.2234 7.52C34.4367 7.52 34.6367 7.48667 34.8234 7.42C35.01 7.34667 35.17 7.24667 35.3034 7.12C35.4434 6.98667 35.5534 6.83 35.6334 6.65C35.7134 6.46333 35.7534 6.25333 35.7534 6.02C35.7534 5.79333 35.7134 5.58667 35.6334 5.4C35.5534 5.21333 35.4434 5.05667 35.3034 4.93C35.17 4.79667 35.01 4.69667 34.8234 4.63C34.6367 4.55667 34.4367 4.52 34.2234 4.52C34.01 4.52 33.81 4.55667 33.6234 4.63C33.4367 4.69667 33.2734 4.79667 33.1334 4.93C33 5.05667 32.8934 5.21333 32.8134 5.4C32.7334 5.58667 32.6934 5.79333 32.6934 6.02C32.6934 6.25333 32.7334 6.46333 32.8134 6.65C32.8934 6.83 33 6.98667 33.1334 7.12C33.2734 7.24667 33.4367 7.34667 33.6234 7.42C33.81 7.48667 34.01 7.52 34.2234 7.52ZM40.6 11H39.76V5H39.74L38.47 6.07L37.97 5.46L39.87 3.92H40.6V11Z" fill="white"/>
</svg>
