<svg width="71" height="31" viewBox="0 0 71 31" fill="none" xmlns="http://www.w3.org/2000/svg">
<g filter="url(#filter0_d_1203_15724)">
<path d="M11.016 23H8.232C7.048 23 6.128 22.672 5.472 22.016C4.832 21.36 4.512 20.448 4.512 19.28V11.288C4.512 10.104 4.832 9.192 5.472 8.552C6.128 7.896 7.048 7.568 8.232 7.568H11.016C12.184 7.568 13.096 7.896 13.752 8.552C14.408 9.192 14.736 10.104 14.736 11.288V12.44C14.736 12.728 14.592 12.872 14.304 12.872H12.792C12.52 12.872 12.384 12.728 12.384 12.44V11.384C12.384 10.2 11.808 9.608 10.656 9.608H8.568C7.416 9.608 6.84 10.2 6.84 11.384V19.184C6.84 20.368 7.416 20.96 8.568 20.96H10.656C11.808 20.96 12.384 20.368 12.384 19.184V18.128C12.384 17.84 12.52 17.696 12.792 17.696H14.304C14.592 17.696 14.736 17.84 14.736 18.128V19.28C14.736 20.448 14.408 21.36 13.752 22.016C13.096 22.672 12.184 23 11.016 23ZM19.3929 23H17.8809C17.6089 23 17.4729 22.864 17.4729 22.592V11.168C17.4729 10.896 17.6089 10.76 17.8809 10.76H19.3929C19.6649 10.76 19.8009 10.896 19.8009 11.168V12.08H19.8969C20.0569 11.68 20.3609 11.36 20.8089 11.12C21.2729 10.88 21.7849 10.76 22.3449 10.76H23.2329C23.5049 10.76 23.6409 10.896 23.6409 11.168V12.416C23.6409 12.72 23.5049 12.848 23.2329 12.8H21.7929C20.4649 12.8 19.8009 13.528 19.8009 14.984V22.592C19.8009 22.864 19.6649 23 19.3929 23ZM29.928 23H28.992C27.808 23 26.888 22.672 26.232 22.016C25.592 21.36 25.272 20.448 25.272 19.28V14.48C25.272 13.296 25.592 12.384 26.232 11.744C26.888 11.088 27.808 10.76 28.992 10.76H34.368C34.656 10.76 34.8 10.896 34.8 11.168V22.592C34.8 22.864 34.656 23 34.368 23H32.856C32.584 23 32.448 22.864 32.448 22.592V21.728H32.352C31.968 22.576 31.16 23 29.928 23ZM32.448 18.92V13.04C32.448 12.88 32.36 12.8 32.184 12.8H29.328C28.176 12.8 27.6 13.392 27.6 14.576V19.184C27.6 20.368 28.176 20.96 29.328 20.96H30.48C31.792 20.96 32.448 20.28 32.448 18.92ZM45.2333 21.368V22.616C45.2333 22.872 45.0893 23 44.8013 23H41.2733C40.0893 23 39.1693 22.672 38.5133 22.016C37.8733 21.36 37.5533 20.448 37.5533 19.28V14.48C37.5533 13.296 37.8733 12.384 38.5133 11.744C39.1693 11.088 40.0893 10.76 41.2733 10.76H44.8013C45.0893 10.76 45.2333 10.896 45.2333 11.168V12.416C45.2333 12.672 45.0893 12.8 44.8013 12.8H41.6093C40.4573 12.8 39.8813 13.392 39.8813 14.576V19.184C39.8813 20.368 40.4573 20.96 41.6093 20.96H44.8013C45.0893 20.96 45.2333 21.096 45.2333 21.368ZM54.4798 10.76H56.2078C56.3518 10.76 56.4478 10.808 56.4958 10.904C56.5598 10.984 56.5438 11.096 56.4478 11.24L53.0638 16.616V16.712L56.7118 22.52C56.7918 22.648 56.7998 22.76 56.7358 22.856C56.6878 22.952 56.5758 23 56.3998 23H54.8398C54.4718 23 54.1998 22.864 54.0238 22.592L50.6398 17.048C50.5278 16.84 50.5278 16.624 50.6398 16.4L53.7838 11.144C53.9278 10.888 54.1598 10.76 54.4798 10.76ZM49.4398 23H47.9278C47.6558 23 47.5198 22.864 47.5198 22.592V6.536C47.5198 6.264 47.6558 6.128 47.9278 6.128H49.4398C49.7118 6.128 49.8478 6.264 49.8478 6.536V22.592C49.8478 22.864 49.7118 23 49.4398 23ZM62.8331 23H58.4171C58.1451 23 58.0091 22.864 58.0091 22.592V21.416C58.0091 21.16 58.1451 21.032 58.4171 21.032H62.4491C63.4891 21.032 64.0091 20.672 64.0091 19.952V19.664C64.0091 19.024 63.6331 18.536 62.8811 18.2L60.2651 16.952C59.4491 16.568 58.8571 16.144 58.4891 15.68C58.1211 15.216 57.9371 14.608 57.9371 13.856C57.9371 11.792 59.0811 10.76 61.3691 10.76H65.3531C65.6091 10.76 65.7371 10.896 65.7371 11.168V12.344C65.7371 12.616 65.6091 12.752 65.3531 12.752H61.8491C61.3691 12.752 61.0011 12.84 60.7451 13.016C60.4891 13.176 60.3611 13.392 60.3611 13.664V13.928C60.3611 14.44 60.7691 14.888 61.5851 15.272L64.2251 16.616C65.0571 16.984 65.6251 17.424 65.9291 17.936C66.2491 18.432 66.4091 19.08 66.4091 19.88C66.4091 21.96 65.2171 23 62.8331 23Z" fill="url(#paint0_linear_1203_15724)"/>
</g>
<defs>
<filter id="filter0_d_1203_15724" x="0.511963" y="6.12891" width="69.8972" height="24.8711" filterUnits="userSpaceOnUse" color-interpolation-filters="sRGB">
<feFlood flood-opacity="0" result="BackgroundImageFix"/>
<feColorMatrix in="SourceAlpha" type="matrix" values="0 0 0 0 0 0 0 0 0 0 0 0 0 0 0 0 0 0 127 0" result="hardAlpha"/>
<feOffset dy="4"/>
<feGaussianBlur stdDeviation="2"/>
<feComposite in2="hardAlpha" operator="out"/>
<feColorMatrix type="matrix" values="0 0 0 0 0 0 0 0 0 0 0 0 0 0 0 0 0 0 0.25 0"/>
<feBlend mode="normal" in2="BackgroundImageFix" result="effect1_dropShadow_1203_15724"/>
<feBlend mode="normal" in="SourceGraphic" in2="effect1_dropShadow_1203_15724" result="shape"/>
</filter>
<linearGradient id="paint0_linear_1203_15724" x1="35.5" y1="0" x2="35.5" y2="31" gradientUnits="userSpaceOnUse">
<stop stop-color="#FFD500"/>
<stop offset="1" stop-color="#FF2800"/>
</linearGradient>
</defs>
</svg>
