<svg width="14" height="14" viewBox="0 0 14 14" fill="none" xmlns="http://www.w3.org/2000/svg">
<g opacity="0.8">
<circle cx="7" cy="7" r="6.74891" fill="#4065F6" fill-opacity="0.01" stroke="white" stroke-width="0.502174"/>
<path d="M7.74025 12.0814C7.24558 12.0814 6.86758 11.9367 6.60625 11.6474C6.34491 11.3487 6.21425 10.9661 6.21425 10.4994V5.05339H7.81025V10.3594C7.81025 10.5741 7.84291 10.7187 7.90825 10.7934C7.97358 10.8681 8.07158 10.9054 8.20225 10.9054C8.23958 10.9054 8.27691 10.9054 8.31425 10.9054C8.36091 10.9054 8.40291 10.9007 8.44025 10.8914C8.47758 10.8914 8.51958 10.8867 8.56625 10.8774L8.73425 11.8854C8.66891 11.9227 8.58491 11.9554 8.48225 11.9834C8.39825 12.0114 8.29091 12.0347 8.16025 12.0534C8.03891 12.0721 7.89891 12.0814 7.74025 12.0814ZM7.04025 1.94539C7.33891 1.94539 7.56758 2.03406 7.72625 2.21139C7.88491 2.38872 7.96425 2.61739 7.96425 2.89739C7.96425 3.17739 7.88025 3.41072 7.71225 3.59739C7.55358 3.78406 7.31558 3.87739 6.99825 3.87739C6.69958 3.87739 6.46625 3.78872 6.29825 3.61139C6.13958 3.42472 6.06025 3.20072 6.06025 2.93939C6.06025 2.65006 6.13958 2.41206 6.29825 2.22539C6.46625 2.03872 6.71358 1.94539 7.04025 1.94539Z" fill="white"/>
</g>
</svg>
